<?xml version="1.0" encoding="UTF-8"?>
<svg preserveAspectRatio="xMidYMid slice" xmlns="http://www.w3.org/2000/svg" width="120px" height="96px" viewBox="0 0 119 96" fill="none">
  <g clip-path="url(#clip0_1_2906)">
    <path d="M44.7201 56.9999C42.5548 56.1458 40.7597 54.556 39.6501 52.5099C39.6501 52.5099 38.6501 41.7499 38.3901 38.4099C38.1301 35.0699 39.1901 34.0999 39.1901 34.0999C52.8601 32.6399 57.4001 23.6399 57.4001 23.6399" stroke="currentcolor" stroke-width="0.75" stroke-linecap="round" stroke-linejoin="round"></path>
    <path d="M38.36 38.4098C36.9187 37.2221 35.1507 36.5001 33.29 36.3394C31.4293 36.1787 29.5637 36.5868 27.9401 37.5098L21.8 40.9998L28.35 45.7498C29.5936 46.651 31.0426 47.2274 32.5654 47.4265C34.0882 47.6255 35.6366 47.4411 37.07 46.8898L39.02 46.1398" stroke="currentcolor" stroke-width="0.75" stroke-linecap="round" stroke-linejoin="round"></path>
    <path d="M39.16 34.0998C39.16 34.0998 36.51 18.6098 28.16 17.9098C19.81 17.2098 17.83 30.8298 17.16 34.0998C16.49 37.3698 13.72 58.9998 13.72 58.9998" stroke="currentcolor" stroke-width="0.75" stroke-linecap="round" stroke-linejoin="round"></path>
    <path d="M19.65 24.7998C19.65 24.7998 23.53 10.1598 37.2 12.0498C42.2188 12.7292 46.9947 14.6279 51.11 17.5798" stroke="currentcolor" stroke-width="0.75" stroke-linecap="round" stroke-linejoin="round"></path>
    <path d="M30.15 46.7499L22.91 66.6699C22.4043 68.0524 21.4874 69.247 20.2826 70.0931C19.0779 70.9392 17.643 71.3962 16.1709 71.4027C14.6988 71.4093 13.2599 70.965 12.0477 70.1296C10.8355 69.2943 9.90806 68.1079 9.39003 66.7299L1.03003 44.3699L13.27 58.4499C13.8739 59.1531 14.6115 59.7294 15.4399 60.1453C16.2683 60.5611 17.1711 60.8084 18.0958 60.8726C19.0205 60.9367 19.9488 60.8166 20.8267 60.5192C21.7046 60.2218 22.5148 59.7529 23.21 59.1399L26.78 55.9999" stroke="currentcolor" stroke-width="0.75" stroke-linecap="round" stroke-linejoin="round"></path>
    <path d="M49.07 66.75L49.3 66.14C50.0067 64.2845 51.0879 62.5944 52.4763 61.175C53.8647 59.7556 55.5305 58.6374 57.37 57.89L59.82 47.49" stroke="currentcolor" stroke-width="0.75" stroke-linecap="round" stroke-linejoin="round"></path>
    <path d="M59.82 67.3199C59.82 65.3199 57.73 65.8399 55.82 65.3999C53.91 64.9599 54.49 62.3999 54.49 62.3999C54.49 62.3999 53.04 62.9399 53.2 66.3999C53.36 69.8599 56.2 66.3999 57.94 67.2599C58.4126 67.4604 58.8321 67.768 59.1653 68.1585C59.4985 68.549 59.7364 69.0117 59.86 69.5099" stroke="currentcolor" stroke-width="0.75" stroke-linecap="round" stroke-linejoin="round"></path>
    <path d="M45.95 48.7399C47.0932 48.7399 48.02 47.8131 48.02 46.6699C48.02 45.5266 47.0932 44.5999 45.95 44.5999C44.8068 44.5999 43.88 45.5266 43.88 46.6699C43.88 47.8131 44.8068 48.7399 45.95 48.7399Z" stroke="currentcolor" stroke-width="0.75" stroke-linecap="round" stroke-linejoin="round"></path>
    <path d="M14.48 54.6099L20.31 60.4399" stroke="currentcolor" stroke-width="0.75" stroke-linecap="round" stroke-linejoin="round"></path>
    <path d="M15.59 46.3499L26 56.7599" stroke="currentcolor" stroke-width="0.75" stroke-linecap="round" stroke-linejoin="round"></path>
    <path d="M16.52 37.9099L28.87 50.2699" stroke="currentcolor" stroke-width="0.75" stroke-linecap="round" stroke-linejoin="round"></path>
    <path d="M18 30.0198L26.37 38.3998" stroke="currentcolor" stroke-width="0.75" stroke-linecap="round" stroke-linejoin="round"></path>
    <path d="M20.3101 22.96L33.6501 36.3" stroke="currentcolor" stroke-width="0.75" stroke-linecap="round" stroke-linejoin="round"></path>
    <path d="M25.1 18.3899L38.69 31.9799" stroke="currentcolor" stroke-width="0.75" stroke-linecap="round" stroke-linejoin="round"></path>
    <path d="M39.64 70.6599L30.15 59.0599L36.16 47.1699" stroke="currentcolor" stroke-width="0.75" stroke-linecap="round" stroke-linejoin="round"></path>
    <path d="M62.28 23.6399C62.28 23.6399 66.81 32.6399 80.49 34.1099C80.49 34.1099 81.49 35.1099 81.28 38.4099C81.07 41.7099 80.02 52.5199 80.02 52.5199C78.9048 54.5751 77.0981 56.1693 74.92 57.0199" stroke="currentcolor" stroke-width="0.75" stroke-linecap="round" stroke-linejoin="round"></path>
    <path d="M81.28 38.4098C82.7213 37.2221 84.4893 36.5001 86.3501 36.3394C88.2108 36.1787 90.0764 36.5868 91.7 37.5098L97.84 40.9998L91.29 45.7498C90.0465 46.651 88.5975 47.2274 87.0747 47.4265C85.5519 47.6255 84.0034 47.4411 82.57 46.8898L80.57 46.1398" stroke="currentcolor" stroke-width="0.75" stroke-linecap="round" stroke-linejoin="round"></path>
    <path d="M80.4901 34.1098C80.4901 34.1098 83.1401 18.6098 91.4901 17.9098C99.8401 17.2098 101.82 30.8298 102.49 34.1098C103.16 37.3898 105.92 58.9998 105.92 58.9998" stroke="currentcolor" stroke-width="0.75" stroke-linecap="round" stroke-linejoin="round"></path>
    <path d="M68.52 17.5899C72.6357 14.63 77.416 12.7275 82.44 12.0499C96.1 10.1699 99.98 24.7999 99.98 24.7999" stroke="currentcolor" stroke-width="0.75" stroke-linecap="round" stroke-linejoin="round"></path>
    <path d="M89.4901 46.7499L96.7301 66.6699C97.2315 68.0567 98.1467 69.2562 99.352 70.106C100.557 70.9558 101.994 71.4151 103.469 71.4216C104.944 71.4282 106.385 70.9817 107.598 70.1426C108.81 69.3035 109.736 68.1122 110.25 66.7299L118.65 44.3699L106.37 58.4499C105.766 59.1531 105.029 59.7294 104.2 60.1453C103.372 60.5611 102.469 60.8084 101.544 60.8726C100.62 60.9367 99.6913 60.8166 98.8134 60.5192C97.9354 60.2218 97.1253 59.7529 96.4301 59.1399L92.8601 55.9999" stroke="currentcolor" stroke-width="0.75" stroke-linecap="round" stroke-linejoin="round"></path>
    <path d="M70.57 66.75L70.34 66.15C69.6319 64.2941 68.5503 62.6034 67.1621 61.1826C65.774 59.7618 64.1089 58.6411 62.27 57.89L59.82 47.49" stroke="currentcolor" stroke-width="0.75" stroke-linecap="round" stroke-linejoin="round"></path>
    <path d="M59.8201 69.5698C59.8201 69.5698 58.3501 77.8798 54.0601 77.8798" stroke="currentcolor" stroke-width="0.75" stroke-linecap="round" stroke-linejoin="round"></path>
    <path d="M59.82 67.3199C59.82 65.3199 61.91 65.8499 63.82 65.3999C65.73 64.9499 65.16 62.3999 65.16 62.3999C65.16 62.3999 66.61 62.9399 66.44 66.3999C66.27 69.8599 63.44 66.3999 61.7 67.2599C61.2274 67.4604 60.808 67.768 60.4747 68.1585C60.1415 68.549 59.9037 69.0117 59.78 69.5099" stroke="currentcolor" stroke-width="0.75" stroke-linecap="round" stroke-linejoin="round"></path>
    <path d="M73.6901 48.7499C74.8333 48.7499 75.7601 47.8231 75.7601 46.6799C75.7601 45.5366 74.8333 44.6099 73.6901 44.6099C72.5468 44.6099 71.6201 45.5366 71.6201 46.6799C71.6201 47.8231 72.5468 48.7499 73.6901 48.7499Z" stroke="currentcolor" stroke-width="0.75" stroke-linecap="round" stroke-linejoin="round"></path>
    <path d="M105.17 54.6099L99.34 60.4399" stroke="currentcolor" stroke-width="0.75" stroke-linecap="round" stroke-linejoin="round"></path>
    <path d="M104.06 46.3499L93.65 56.7599" stroke="currentcolor" stroke-width="0.75" stroke-linecap="round" stroke-linejoin="round"></path>
    <path d="M103.12 37.9099L90.77 50.2699" stroke="currentcolor" stroke-width="0.75" stroke-linecap="round" stroke-linejoin="round"></path>
    <path d="M101.65 30.0198L93.27 38.3998" stroke="currentcolor" stroke-width="0.75" stroke-linecap="round" stroke-linejoin="round"></path>
    <path d="M99.34 22.97L86 36.3" stroke="currentcolor" stroke-width="0.75" stroke-linecap="round" stroke-linejoin="round"></path>
    <path d="M94.54 18.3899L80.95 31.9799" stroke="currentcolor" stroke-width="0.75" stroke-linecap="round" stroke-linejoin="round"></path>
    <path d="M59.2 33.77L56.07 31.54L58.36 34.63L51.41 35.27L58.37 35.84L56.14 38.97L59.23 36.68L59.87 45.7299L60.44 36.6699L63.57 38.9L61.28 35.81L68.23 35.1699L61.27 34.5999L63.5 31.4599L60.41 33.75L59.77 24.7L59.2 33.77Z" stroke="currentcolor" stroke-width="0.75" stroke-linecap="round" stroke-linejoin="round"></path>
    <path d="M68.5201 17.5899C66.1222 19.2505 64.014 21.2945 62.2801 23.6399H57.3701C55.6294 21.2941 53.5185 19.2473 51.1201 17.5799L59.8201 0.379883L68.5201 17.5899Z" stroke="currentcolor" stroke-width="0.75" stroke-linecap="round" stroke-linejoin="round"></path>
    <path d="M83.48 47.1799L89.49 59.0599L80.01 70.6699" stroke="currentcolor" stroke-width="0.75" stroke-linecap="round" stroke-linejoin="round"></path>
    <path d="M80.01 70.67L59.83 95.36L39.65 70.66L44.72 57L49.08 66.72L54.08 77.86C54.8088 78.6486 55.7034 79.2657 56.6995 79.6669C57.6955 80.0681 58.7681 80.2433 59.84 80.18C60.9109 80.2418 61.9822 80.0668 62.9777 79.6676C63.9733 79.2683 64.8686 78.6546 65.6 77.87L70.6 66.73L74.92 57L80.01 70.67Z" stroke="currentcolor" stroke-width="0.75" stroke-linecap="round" stroke-linejoin="round"></path>
    <path d="M62.65 18.4499C63.3256 18.4514 63.9841 18.2378 64.53 17.8399C63.9687 18.7792 63.1148 19.5084 62.0992 19.9156C61.0836 20.3229 59.9624 20.3858 58.9076 20.0946C57.8529 19.8035 56.9227 19.1743 56.2599 18.3037C55.597 17.4331 55.2381 16.3691 55.2381 15.2749C55.2381 14.1807 55.597 13.1167 56.2599 12.2461C56.9227 11.3755 57.8529 10.7463 58.9076 10.4552C59.9624 10.164 61.0836 10.2269 62.0992 10.6342C63.1148 11.0414 63.9687 11.7706 64.53 12.7099C64.1251 12.4115 63.6551 12.2134 63.1588 12.1319C62.6624 12.0504 62.1538 12.0878 61.6747 12.2411C61.1956 12.3944 60.7597 12.6591 60.4027 13.0136C60.0458 13.368 59.7781 13.8021 59.6215 14.2801C59.465 14.7581 59.424 15.2665 59.5021 15.7634C59.5802 16.2603 59.775 16.7317 60.0706 17.1387C60.3662 17.5457 60.7541 17.8767 61.2025 18.1047C61.6509 18.3326 62.147 18.4509 62.65 18.4499Z" stroke="currentcolor" stroke-width="0.75" stroke-linecap="round" stroke-linejoin="round"></path>
    <path d="M97.28 40.9099H81.34C78.282 40.9134 75.2834 41.754 72.6692 43.3405C70.0549 44.927 67.9249 47.1989 66.51 49.9099L62.27 57.9099" stroke="currentcolor" stroke-width="0.75" stroke-linecap="round" stroke-linejoin="round"></path>
    <path d="M59.82 69.5698C59.82 69.5698 61.29 77.8798 65.59 77.8798" stroke="currentcolor" stroke-width="0.75" stroke-linecap="round" stroke-linejoin="round"></path>
    <path d="M50.57 5.90988C49.7327 6.58672 49.042 7.42697 48.54 8.37943C48.038 9.33189 47.7352 10.3766 47.65 11.4499C47.5597 10.3768 47.2536 9.33298 46.7501 8.38103C46.2466 7.42907 45.5561 6.58857 44.72 5.90988C45.555 5.23234 46.2448 4.39343 46.7482 3.44328C47.2516 2.49313 47.5584 1.45124 47.65 0.379883C47.7359 1.45157 48.0391 2.49456 48.5411 3.44529C49.0431 4.39601 49.7335 5.23458 50.57 5.90988Z" stroke="currentcolor" stroke-width="0.75" stroke-linecap="round" stroke-linejoin="round"></path>
    <path d="M30.83 74.8198C29.9939 75.4985 29.3034 76.339 28.8 77.2909C28.2965 78.2429 27.9904 79.2867 27.9 80.3598C27.8137 79.2857 27.5093 78.2406 27.0055 77.2881C26.5018 76.3356 25.8092 75.4957 24.97 74.8198C25.8093 74.1462 26.5021 73.3082 27.006 72.3573C27.5098 71.4064 27.8141 70.3625 27.9 69.2898C27.9917 70.3612 28.2984 71.403 28.8018 72.3532C29.3053 73.3033 29.9951 74.1423 30.83 74.8198Z" stroke="currentcolor" stroke-width="0.75" stroke-linecap="round" stroke-linejoin="round"></path>
    <path d="M94.65 74.8198C93.8109 75.4957 93.1183 76.3356 92.6145 77.2881C92.1108 78.2406 91.8064 79.2857 91.72 80.3598C91.6297 79.2867 91.3236 78.2429 90.8201 77.2909C90.3166 76.339 89.6262 75.4985 88.79 74.8198C89.625 74.1423 90.3148 73.3033 90.8182 72.3532C91.3217 71.403 91.6284 70.3612 91.72 69.2898C91.806 70.3625 92.1102 71.4064 92.6141 72.3573C93.1179 73.3082 93.8108 74.1462 94.65 74.8198Z" stroke="currentcolor" stroke-width="0.75" stroke-linecap="round" stroke-linejoin="round"></path>
    <path d="M22.13 40.9099H38.07C41.128 40.9134 44.1266 41.754 46.7409 43.3405C49.3551 44.927 51.4851 47.1989 52.9 49.9099L57.14 57.9099" stroke="currentcolor" stroke-width="0.75" stroke-linecap="round" stroke-linejoin="round"></path>
  </g>
  <defs>
    <clipPath id="clip0_1_2906">
      <rect width="118.34" height="95.73" fill="currentcolor" transform="translate(0.650024)"></rect>
    </clipPath>
  </defs>
</svg>
