<?xml version="1.0" encoding="UTF-8"?>
<svg preserveAspectRatio="xMidYMid slice" xmlns="http://www.w3.org/2000/svg" width="117px" height="120px" viewBox="0 0 88 90" fill="none">
  <g clip-path="url(#clip0_1_2871)">
    <path d="M55.72 24.6L38.63 24.57L37.16 21.55L55.72 21.59" stroke="currentcolor" stroke-width="0.75" stroke-linecap="round" stroke-linejoin="round"></path>
    <path d="M55.71 27.8501L41.01 27.8201L39.79 24.5701" stroke="currentcolor" stroke-width="0.75" stroke-linecap="round" stroke-linejoin="round"></path>
    <path d="M55.69 39.1601H44.69C44.69 39.1601 46.07 36.8801 41.94 27.8401" stroke="currentcolor" stroke-width="0.75" stroke-linecap="round" stroke-linejoin="round"></path>
    <path d="M55 79.0999H49C49 79.0999 30.07 59.8099 31.73 51.7099C33.39 43.6099 41 39.1299 41 39.1299H66.3C66.3 39.1299 73.87 43.6299 75.5 51.7399C77.13 59.8499 58.11 79.1099 58.11 79.1099H52.11" stroke="currentcolor" stroke-width="0.75" stroke-linecap="round" stroke-linejoin="round"></path>
    <path d="M54.98 81.3501L49 81.3401L49.01 79.0901" stroke="currentcolor" stroke-width="0.75" stroke-linecap="round" stroke-linejoin="round"></path>
    <path d="M54.97 85.3601L41.98 85.3401L43.28 82.7501L49 81.3401" stroke="currentcolor" stroke-width="0.75" stroke-linecap="round" stroke-linejoin="round"></path>
    <path d="M34.71 45.0601L55.04 45.1001" stroke="currentcolor" stroke-width="0.75" stroke-linecap="round" stroke-linejoin="round"></path>
    <path d="M35.81 62.9399L55.01 62.9699" stroke="currentcolor" stroke-width="0.75" stroke-linecap="round" stroke-linejoin="round"></path>
    <path d="M62.63 57.4799L70.48 57.4899L70.49 51.7099H68.4L68.35 55.2699H65.28L65.33 48.6799L72.64 48.6899L72.62 57.4999H74.37" stroke="currentcolor" stroke-width="0.75" stroke-linecap="round" stroke-linejoin="round"></path>
    <path d="M53.49 21.5801L72.05 21.6201L70.57 24.6301L53.48 24.6001" stroke="currentcolor" stroke-width="0.75" stroke-linecap="round" stroke-linejoin="round"></path>
    <path d="M53.48 27.8399L68.18 27.8699L69.41 24.6299" stroke="currentcolor" stroke-width="0.75" stroke-linecap="round" stroke-linejoin="round"></path>
    <path d="M53.46 39.1501H64.46C64.46 39.1501 63.08 36.8701 67.25 27.8501" stroke="currentcolor" stroke-width="0.75" stroke-linecap="round" stroke-linejoin="round"></path>
    <path d="M52.13 81.3401L58.1 81.3501L58.11 79.1101" stroke="currentcolor" stroke-width="0.75" stroke-linecap="round" stroke-linejoin="round"></path>
    <path d="M52.12 85.3501L65.11 85.3801L63.83 82.7901L58.1 81.3501" stroke="currentcolor" stroke-width="0.75" stroke-linecap="round" stroke-linejoin="round"></path>
    <path d="M72.52 45.1301L52.19 45.1001" stroke="currentcolor" stroke-width="0.75" stroke-linecap="round" stroke-linejoin="round"></path>
    <path d="M71.36 63L52.16 62.97" stroke="currentcolor" stroke-width="0.75" stroke-linecap="round" stroke-linejoin="round"></path>
    <path d="M69.38 41.5799C69.38 41.5799 72.93 31.8899 82 35.9999C91.32 40.1699 89.13 67.2199 68.42 67.1899" stroke="currentcolor" stroke-width="0.75" stroke-linecap="round" stroke-linejoin="round"></path>
    <path d="M62.63 57.4799L62.65 48.6799L55.34 48.6599L55.29 55.2499H58.36L58.41 51.6899L60.5 51.6999L60.49 57.4799L52.64 57.4599" stroke="currentcolor" stroke-width="0.75" stroke-linecap="round" stroke-linejoin="round"></path>
    <path d="M52.64 57.4599L52.66 48.6599L45.35 48.6499L45.3 55.2299H48.38L48.42 51.6699L50.51 51.6799L50.5 57.4599L42.65 57.4499" stroke="currentcolor" stroke-width="0.75" stroke-linecap="round" stroke-linejoin="round"></path>
    <path d="M42.65 57.4499L42.67 48.6399L35.36 48.6299L35.31 55.2099L38.39 55.2199L38.43 51.6599H40.52L40.51 57.4399L33.02 57.4299" stroke="currentcolor" stroke-width="0.75" stroke-linecap="round" stroke-linejoin="round"></path>
    <path d="M7.47 64.21C6.45582 65.0307 5.6184 66.0484 5.00826 67.2017C4.39813 68.3549 4.02794 69.6198 3.92 70.92C3.81502 69.6201 3.44712 68.3551 2.83861 67.2017C2.2301 66.0483 1.39366 65.0305 0.380005 64.21C1.39279 63.3887 2.22863 62.3707 2.83706 61.2175C3.44549 60.0642 3.81388 58.7996 3.92 57.5C4.02907 58.7999 4.39976 60.0644 5.00981 61.2175C5.61986 62.3706 6.45668 63.3885 7.47 64.21Z" stroke="currentcolor" stroke-width="0.75" stroke-linecap="round" stroke-linejoin="round"></path>
    <path d="M81.4 23.3599C80.3844 24.1771 79.5458 25.1927 78.9355 26.3446C78.3251 27.4965 77.9558 28.7606 77.85 30.0599C77.7442 28.7606 77.3748 27.4965 76.7645 26.3446C76.1542 25.1927 75.3156 24.1771 74.3 23.3599C75.3155 22.5403 76.1538 21.5229 76.7641 20.3695C77.3743 19.216 77.7438 17.9505 77.85 16.6499C77.9562 17.9505 78.3257 19.216 78.9359 20.3695C79.5462 21.5229 80.3845 22.5403 81.4 23.3599Z" stroke="currentcolor" stroke-width="0.75" stroke-linecap="round" stroke-linejoin="round"></path>
    <path d="M40.8 76.1401C39.0441 74.5792 36.7433 73.774 34.3973 73.8994C32.0512 74.0249 29.8494 75.0708 28.27 76.8101C27.4348 77.731 26.4161 78.467 25.2794 78.9706C24.1427 79.4742 22.9132 79.7344 21.67 79.7344C20.4267 79.7344 19.1972 79.4742 18.0606 78.9706C16.9239 78.467 15.9052 77.731 15.07 76.8101C14.2348 75.8892 13.2161 75.1532 12.0794 74.6496C10.9427 74.1459 9.71325 73.8857 8.47 73.8857C7.22674 73.8857 5.99725 74.1459 4.86057 74.6496C3.7239 75.1532 2.7052 75.8892 1.87 76.8101" stroke="currentcolor" stroke-width="0.75" stroke-linecap="round" stroke-linejoin="round"></path>
    <path d="M40.39 80.61C38.6366 79.0454 36.3359 78.2369 33.9891 78.3605C31.6423 78.4841 29.4394 79.5298 27.86 81.27C27.0248 82.191 26.0061 82.9269 24.8694 83.4306C23.7328 83.9342 22.5033 84.1944 21.26 84.1944C20.0168 84.1944 18.7873 83.9342 17.6506 83.4306C16.5139 82.9269 15.4952 82.191 14.66 81.27C13.8248 80.3491 12.8061 79.6132 11.6694 79.1095C10.5328 78.6059 9.30328 78.3457 8.06002 78.3457C6.81677 78.3457 5.58727 78.6059 4.4506 79.1095C3.31392 79.6132 2.29523 80.3491 1.46002 81.27" stroke="currentcolor" stroke-width="0.75" stroke-linecap="round" stroke-linejoin="round"></path>
    <path d="M40.39 85.27C38.6341 83.709 36.3333 82.9039 33.9873 83.0293C31.6413 83.1548 29.4394 84.2007 27.86 85.94C27.0248 86.8609 26.0061 87.5968 24.8694 88.1005C23.7328 88.6041 22.5033 88.8643 21.26 88.8643C20.0168 88.8643 18.7873 88.6041 17.6506 88.1005C16.5139 87.5968 15.4952 86.8609 14.66 85.94C13.8248 85.019 12.8061 84.2831 11.6694 83.7794C10.5328 83.2758 9.30328 83.0156 8.06002 83.0156C6.81677 83.0156 5.58727 83.2758 4.4506 83.7794C3.31392 84.2831 2.29523 85.019 1.46002 85.94" stroke="currentcolor" stroke-width="0.75" stroke-linecap="round" stroke-linejoin="round"></path>
    <path d="M45.21 21.56L45.09 21.25C44.1248 18.8136 42.449 16.7239 40.2804 15.2526C38.1117 13.7813 35.5506 12.9964 32.93 13H29C23.8892 12.9947 18.9851 15.0178 15.3646 18.6252C11.7442 22.2325 9.70325 27.1292 9.69 32.24V73.89" stroke="currentcolor" stroke-width="0.75" stroke-linecap="round" stroke-linejoin="round"></path>
    <path d="M12.79 49.28V74.78" stroke="currentcolor" stroke-width="0.75" stroke-linecap="round" stroke-linejoin="round"></path>
    <path d="M16.75 64.8799V77.9599" stroke="currentcolor" stroke-width="0.75" stroke-linecap="round" stroke-linejoin="round"></path>
    <path d="M20.68 56.7V79.48" stroke="currentcolor" stroke-width="0.75" stroke-linecap="round" stroke-linejoin="round"></path>
    <path d="M24.49 64.77V79.09" stroke="currentcolor" stroke-width="0.75" stroke-linecap="round" stroke-linejoin="round"></path>
    <path d="M37.16 21.5601C34.9948 21.568 32.9209 22.433 31.3917 23.9659C29.8625 25.4988 29.0026 27.5749 29 29.7401V76.0001" stroke="currentcolor" stroke-width="0.75" stroke-linecap="round" stroke-linejoin="round"></path>
    <path d="M60.87 15.5C62.1147 15.5044 63.3278 15.1082 64.33 14.37C63.2959 16.1231 61.714 17.4876 59.8281 18.2533C57.9422 19.019 55.8569 19.1435 53.8933 18.6075C51.9297 18.0715 50.1969 16.9048 48.9616 15.2871C47.7263 13.6694 47.0571 11.6904 47.0571 9.655C47.0571 7.61959 47.7263 5.64063 48.9616 4.02294C50.1969 2.40524 51.9297 1.23854 53.8933 0.702547C55.8569 0.16655 57.9422 0.290986 59.8281 1.05669C61.714 1.82239 63.2959 3.18688 64.33 4.94C63.5851 4.39125 62.7206 4.02702 61.8076 3.87721C60.8946 3.7274 59.9591 3.79628 59.0778 4.0782C58.1966 4.36013 57.3948 4.84705 56.7383 5.49899C56.0818 6.15093 55.5893 6.9493 55.3012 7.82853C55.0131 8.70776 54.9377 9.64279 55.0811 10.5568C55.2245 11.4709 55.5827 12.3379 56.1262 13.0866C56.6697 13.8354 57.3831 14.4445 58.2078 14.864C59.0324 15.2836 59.9448 15.5015 60.87 15.5Z" stroke="currentcolor" stroke-width="0.75" stroke-linecap="round" stroke-linejoin="round"></path>
  </g>
  <defs>
    <clipPath id="clip0_1_2871">
      <rect width="87.65" height="89.24" fill="currentcolor"></rect>
    </clipPath>
  </defs>
</svg>
