<?xml version="1.0" encoding="UTF-8"?>
<svg preserveAspectRatio="xMidYMid slice" xmlns="http://www.w3.org/2000/svg" width="120px" height="100px" viewBox="0 0 90 75" fill="none">
  <g clip-path="url(#clip0_1_3253)">
    <path d="M71.79 12.2798C75.6136 16.2767 78.4354 21.1228 80.0242 26.421C81.6129 31.7192 81.9233 37.3185 80.93 42.7598C77.44 61.3498 67.25 67.9198 67.25 67.9198C67.25 67.9198 65.25 73.2398 60.64 71.7498C60.64 71.7498 56.39 74.8298 52.22 70.3798C51.2778 69.5208 50.6955 68.3373 50.5897 67.0667C50.484 65.7962 50.8628 64.5327 51.65 63.5298C51.65 63.5298 49.93 60.4598 55.79 57.9198C55.79 57.9198 80.29 39.4898 71.79 12.2798Z" stroke="currentcolor" stroke-width="0.75" stroke-linecap="round" stroke-linejoin="round"></path>
    <path d="M88.76 61.3298L84.88 50.5798L74.32 60.1598" stroke="currentcolor" stroke-width="0.75" stroke-linecap="round" stroke-linejoin="round"></path>
    <path d="M57.36 56.4698L57.14 37.7598L67.33 38.4398L60.58 53.5198" stroke="currentcolor" stroke-width="0.75" stroke-linecap="round" stroke-linejoin="round"></path>
    <path d="M81.53 37.1798C81.53 37.1798 83.86 29.9698 83.77 28.7798C83.68 27.5898 79.86 25.7798 79.86 25.7798" stroke="currentcolor" stroke-width="0.75" stroke-linecap="round" stroke-linejoin="round"></path>
    <path d="M73.36 25.2898C73.36 25.2898 70.53 27.2398 69.99 28.7098C69.45 30.1798 71.15 36.2998 71.15 36.2998" stroke="currentcolor" stroke-width="0.75" stroke-linecap="round" stroke-linejoin="round"></path>
    <path d="M87.27 57.1799L69.97 65.6199L85.9 53.3899" stroke="currentcolor" stroke-width="0.75" stroke-linecap="round" stroke-linejoin="round"></path>
    <path d="M88.76 61.3298L69.8 65.8598" stroke="currentcolor" stroke-width="0.75" stroke-linecap="round" stroke-linejoin="round"></path>
    <path d="M58.82 54.9997L64.14 38.2297" stroke="currentcolor" stroke-width="0.75" stroke-linecap="round" stroke-linejoin="round"></path>
    <path d="M59.55 37.9199L58.41 55.4199" stroke="currentcolor" stroke-width="0.75" stroke-linecap="round" stroke-linejoin="round"></path>
    <path d="M71.79 12.2798C71.79 12.2798 65 3.55979 51.41 2.27979L63.52 22.1598L73.36 21.0198" stroke="currentcolor" stroke-width="0.75" stroke-linecap="round" stroke-linejoin="round"></path>
    <path d="M72.77 16.1699C72.77 16.1699 67.07 9.35992 55.47 8.91992" stroke="currentcolor" stroke-width="0.75" stroke-linecap="round" stroke-linejoin="round"></path>
    <path d="M73.06 19.0497C73.06 19.0497 66.71 15.1797 60.16 16.6397" stroke="currentcolor" stroke-width="0.75" stroke-linecap="round" stroke-linejoin="round"></path>
    <path d="M63.76 70.2598C64.5222 70.2598 65.14 69.6419 65.14 68.8798C65.14 68.1176 64.5222 67.4998 63.76 67.4998C62.9979 67.4998 62.38 68.1176 62.38 68.8798C62.38 69.6419 62.9979 70.2598 63.76 70.2598Z" stroke="currentcolor" stroke-width="0.75" stroke-linecap="round" stroke-linejoin="round"></path>
    <path d="M54.48 63.2698C55.2421 63.2698 55.86 62.6519 55.86 61.8898C55.86 61.1276 55.2421 60.5098 54.48 60.5098C53.7178 60.5098 53.1 61.1276 53.1 61.8898C53.1 62.6519 53.7178 63.2698 54.48 63.2698Z" stroke="currentcolor" stroke-width="0.75" stroke-linecap="round" stroke-linejoin="round"></path>
    <path d="M17.71 62.7899C17.71 62.7899 5.06998 50.9199 8.56998 32.3099C12.07 13.6999 22.24 7.1099 22.24 7.1099C22.24 7.1099 24.24 1.7899 28.86 3.2799C28.86 3.2799 33.11 0.1999 37.28 4.6499C38.2221 5.50887 38.8045 6.69241 38.9102 7.96296C39.016 9.23351 38.6372 10.497 37.85 11.4999C37.85 11.4999 39.57 14.6099 33.71 17.1299C33.71 17.1299 9.20998 35.5799 17.71 62.7899Z" stroke="currentcolor" stroke-width="0.75" stroke-linecap="round" stroke-linejoin="round"></path>
    <path d="M0.73999 13.7397L4.61999 24.4897L15.18 14.9097" stroke="currentcolor" stroke-width="0.75" stroke-linecap="round" stroke-linejoin="round"></path>
    <path d="M32.14 18.5999L32.36 37.3099L22.18 36.6299L28.92 21.5499" stroke="currentcolor" stroke-width="0.75" stroke-linecap="round" stroke-linejoin="round"></path>
    <path d="M7.96999 37.9199C7.96999 37.9199 5.63999 45.1299 5.72999 46.3199C5.81999 47.5099 9.63999 49.3199 9.63999 49.3199" stroke="currentcolor" stroke-width="0.75" stroke-linecap="round" stroke-linejoin="round"></path>
    <path d="M16.13 49.7798C16.13 49.7798 18.96 47.7798 19.5 46.3598C20.04 44.9398 18.36 38.7698 18.36 38.7698" stroke="currentcolor" stroke-width="0.75" stroke-linecap="round" stroke-linejoin="round"></path>
    <path d="M2.22998 17.8897L19.53 9.44971L3.59998 21.6797" stroke="currentcolor" stroke-width="0.75" stroke-linecap="round" stroke-linejoin="round"></path>
    <path d="M0.73999 13.7397L19.7 9.20972" stroke="currentcolor" stroke-width="0.75" stroke-linecap="round" stroke-linejoin="round"></path>
    <path d="M30.68 20.0698L25.36 36.8398" stroke="currentcolor" stroke-width="0.75" stroke-linecap="round" stroke-linejoin="round"></path>
    <path d="M29.95 37.1499L31.09 19.6499" stroke="currentcolor" stroke-width="0.75" stroke-linecap="round" stroke-linejoin="round"></path>
    <path d="M17.71 62.7899C17.71 62.7899 24.5 71.5099 38.09 72.7899L25.98 52.9199L16.12 54.0599" stroke="currentcolor" stroke-width="0.75" stroke-linecap="round" stroke-linejoin="round"></path>
    <path d="M16.73 58.9199C16.73 58.9199 22.43 65.7299 34.03 66.1799" stroke="currentcolor" stroke-width="0.75" stroke-linecap="round" stroke-linejoin="round"></path>
    <path d="M16.44 56.0198C16.44 56.0198 22.79 59.9198 29.36 58.4298" stroke="currentcolor" stroke-width="0.75" stroke-linecap="round" stroke-linejoin="round"></path>
    <path d="M25.74 7.56981C26.5021 7.56981 27.12 6.95197 27.12 6.18981C27.12 5.42766 26.5021 4.80981 25.74 4.80981C24.9778 4.80981 24.36 5.42766 24.36 6.18981C24.36 6.95197 24.9778 7.56981 25.74 7.56981Z" stroke="currentcolor" stroke-width="0.75" stroke-linecap="round" stroke-linejoin="round"></path>
    <path d="M35.02 14.5598C35.7821 14.5598 36.4 13.942 36.4 13.1798C36.4 12.4177 35.7821 11.7998 35.02 11.7998C34.2578 11.7998 33.64 12.4177 33.64 13.1798C33.64 13.942 34.2578 14.5598 35.02 14.5598Z" stroke="currentcolor" stroke-width="0.75" stroke-linecap="round" stroke-linejoin="round"></path>
    <path d="M50.06 42.3299C51.1418 42.3299 52.1945 41.979 53.06 41.3299C52.165 42.8368 50.8 44.0081 49.1746 44.6639C47.5493 45.3196 45.7536 45.4234 44.0635 44.9594C42.3734 44.4954 40.8824 43.4892 39.8198 42.0954C38.7571 40.7017 38.1815 38.9975 38.1815 37.2449C38.1815 35.4922 38.7571 33.7881 39.8198 32.3943C40.8824 31.0006 42.3734 29.9944 44.0635 29.5304C45.7536 29.0663 47.5493 29.1702 49.1746 29.8259C50.8 30.4816 52.165 31.6529 53.06 33.1599C52.1945 32.5108 51.1418 32.1599 50.06 32.1599C49.3759 32.1295 48.6927 32.238 48.0517 32.4788C47.4107 32.7196 46.8252 33.0878 46.3303 33.5611C45.8355 34.0344 45.4417 34.6031 45.1726 35.2328C44.9036 35.8625 44.7649 36.5401 44.7649 37.2249C44.7649 37.9096 44.9036 38.5873 45.1726 39.217C45.4417 39.8467 45.8355 40.4153 46.3303 40.8886C46.8252 41.362 47.4107 41.7301 48.0517 41.971C48.6927 42.2118 49.3759 42.3203 50.06 42.2899V42.3299Z" stroke="currentcolor" stroke-width="0.75" stroke-linecap="round" stroke-linejoin="round"></path>
    <path d="M45.57 60.2598V73.7798" stroke="currentcolor" stroke-width="0.75" stroke-linecap="round" stroke-linejoin="round"></path>
    <path d="M45.57 58.2799C46.3763 58.2799 47.03 57.6262 47.03 56.8199C47.03 56.0135 46.3763 55.3599 45.57 55.3599C44.7636 55.3599 44.11 56.0135 44.11 56.8199C44.11 57.6262 44.7636 58.2799 45.57 58.2799Z" stroke="currentcolor" stroke-width="0.75" stroke-linecap="round" stroke-linejoin="round"></path>
    <path d="M45.57 53.7997C47.1882 53.7997 48.5 52.4879 48.5 50.8697C48.5 49.2515 47.1882 47.9397 45.57 47.9397C43.9518 47.9397 42.64 49.2515 42.64 50.8697C42.64 52.4879 43.9518 53.7997 45.57 53.7997Z" stroke="currentcolor" stroke-width="0.75" stroke-linecap="round" stroke-linejoin="round"></path>
    <path d="M45.57 14.8098V1.2998" stroke="currentcolor" stroke-width="0.75" stroke-linecap="round" stroke-linejoin="round"></path>
    <path d="M45.57 19.7098C46.3763 19.7098 47.03 19.0561 47.03 18.2498C47.03 17.4435 46.3763 16.7898 45.57 16.7898C44.7636 16.7898 44.11 17.4435 44.11 18.2498C44.11 19.0561 44.7636 19.7098 45.57 19.7098Z" stroke="currentcolor" stroke-width="0.75" stroke-linecap="round" stroke-linejoin="round"></path>
    <path d="M45.57 27.1298C47.1882 27.1298 48.5 25.818 48.5 24.1998C48.5 22.5816 47.1882 21.2698 45.57 21.2698C43.9518 21.2698 42.64 22.5816 42.64 24.1998C42.64 25.818 43.9518 27.1298 45.57 27.1298Z" stroke="currentcolor" stroke-width="0.75" stroke-linecap="round" stroke-linejoin="round"></path>
    <path d="M37.89 51.7797C36.9395 52.5465 36.155 53.4987 35.5842 54.5783C35.0134 55.658 34.6684 56.8425 34.57 58.0597C34.4704 56.8417 34.1238 55.6568 33.5513 54.5771C32.9787 53.4974 32.1923 52.5456 31.24 51.7797C32.1935 51.0128 32.9806 50.0594 33.5532 48.9779C34.1257 47.8964 34.4717 46.7095 34.57 45.4897C34.667 46.7087 35.0115 47.8952 35.5823 48.9766C36.1531 50.0581 36.9383 51.0119 37.89 51.7797Z" stroke="currentcolor" stroke-width="0.75" stroke-linecap="round" stroke-linejoin="round"></path>
    <path d="M59.9 24.6799C58.9541 25.4421 58.1724 26.3879 57.6018 27.4603C57.0312 28.5327 56.6836 29.7095 56.58 30.9199C56.4804 29.7018 56.1338 28.5169 55.5613 27.4372C54.9888 26.3575 54.2024 25.4057 53.25 24.6399C54.2035 23.8729 54.9906 22.9195 55.5632 21.838C56.1357 20.7565 56.4817 19.5696 56.58 18.3499C56.6717 19.5758 57.0136 20.7699 57.5846 21.8586C58.1556 22.9473 58.9436 23.9074 59.9 24.6799Z" stroke="currentcolor" stroke-width="0.75" stroke-linecap="round" stroke-linejoin="round"></path>
  </g>
  <defs>
    <clipPath id="clip0_1_3253">
      <rect width="88.78" height="73.23" fill="currentcolor" transform="translate(0.359985 0.919922)"></rect>
    </clipPath>
  </defs>
</svg>
