<?xml version="1.0" encoding="UTF-8"?>
<svg preserveAspectRatio="xMidYMid slice" xmlns="http://www.w3.org/2000/svg" width="80px" height="120px" viewBox="0 0 76 114" fill="none">
  <g clip-path="url(#clip0_1_3379)">
    <path d="M39.6999 57.0798H34.0099L24.7799 65.7998L22.3099 75.7898L28.5299 102.76" stroke="currentcolor" stroke-width="0.75" stroke-linecap="round" stroke-linejoin="round"></path>
    <path d="M39.71 103.86H34.61C34.61 103.86 31.61 103.18 31.61 98.4897C30.791 100.702 30.4106 103.052 30.49 105.41C30.5236 106.388 30.9353 107.315 31.6384 107.995C32.3416 108.676 33.2813 109.058 34.26 109.06H39.71" stroke="currentcolor" stroke-width="0.75" stroke-linecap="round" stroke-linejoin="round"></path>
    <path d="M34.59 107.19C34.59 107.19 30.66 105.79 31.92 104.53C33.18 103.27 34.59 107.19 34.59 107.19Z" stroke="currentcolor" stroke-width="0.75" stroke-linecap="round" stroke-linejoin="round"></path>
    <path d="M22.31 75.7898L20.71 78.4498C19.8556 79.8981 18.6284 81.0908 17.1562 81.9034C15.684 82.7159 14.0208 83.1188 12.34 83.0698L1.08997 82.7298" stroke="currentcolor" stroke-width="0.75" stroke-linecap="round" stroke-linejoin="round"></path>
    <path d="M23.38 71.43L20.22 70.3C18.4732 69.6774 16.5812 69.5854 14.7823 70.0356C12.9833 70.4858 11.3577 71.458 10.11 72.83L1.10999 82.73L23.4 71.43C34.64 71.43 33.89 84.02 33.89 84.02" stroke="currentcolor" stroke-width="0.75" stroke-linecap="round" stroke-linejoin="round"></path>
    <path d="M24.7799 65.7998C24.7799 65.7998 4.08995 59.0098 4.70995 46.9298C5.32995 34.8498 10.99 29.3998 14.83 23.9298C21.71 14.1898 18.12 0.569824 18.12 0.569824C27.82 14.4898 20.7999 26.5698 18.6899 30.0498C16.58 33.5298 13.4 37.8198 15.61 45.2998C17.82 52.7798 34.0099 57.0798 34.0099 57.0798" stroke="currentcolor" stroke-width="0.75" stroke-linecap="round" stroke-linejoin="round"></path>
    <path d="M21.42 64.4998L30.1 55.8198" stroke="currentcolor" stroke-width="0.75" stroke-linecap="round" stroke-linejoin="round"></path>
    <path d="M14.02 60.5798L22.33 52.2698" stroke="currentcolor" stroke-width="0.75" stroke-linecap="round" stroke-linejoin="round"></path>
    <path d="M7.90997 55.3599L16.34 46.9299" stroke="currentcolor" stroke-width="0.75" stroke-linecap="round" stroke-linejoin="round"></path>
    <path d="M4.72998 47.2298L15.43 36.5298" stroke="currentcolor" stroke-width="0.75" stroke-linecap="round" stroke-linejoin="round"></path>
    <path d="M9.99994 30.6299L23.0299 17.5999" stroke="currentcolor" stroke-width="0.75" stroke-linecap="round" stroke-linejoin="round"></path>
    <path d="M19.0099 10.2898L21.75 7.5498" stroke="currentcolor" stroke-width="0.75" stroke-linecap="round" stroke-linejoin="round"></path>
    <path d="M28.88 82.3398C27.3337 81.8801 25.9852 80.9171 25.0486 79.6036C24.112 78.2902 23.6408 76.7016 23.71 75.0898L25.71 75.8298C26.4422 76.0993 27.0867 76.5643 27.5732 77.1743C28.0598 77.7843 28.37 78.516 28.47 79.2898L28.88 82.3398Z" stroke="currentcolor" stroke-width="0.75" stroke-linecap="round" stroke-linejoin="round"></path>
    <path d="M12.5699 59.5898L3.06995 80.5498" stroke="currentcolor" stroke-width="0.75" stroke-linecap="round" stroke-linejoin="round"></path>
    <path d="M3.40997 82.7998L29.14 111.43" stroke="currentcolor" stroke-width="0.75" stroke-linecap="round" stroke-linejoin="round"></path>
    <path d="M36.93 57.0798H42.62L51.85 65.7998L54.32 75.7898L48.09 102.76" stroke="currentcolor" stroke-width="0.75" stroke-linecap="round" stroke-linejoin="round"></path>
    <path d="M48.71 104.77L47.5 111.43C46.7967 112.211 45.8605 112.744 44.8303 112.951C43.8 113.158 42.7304 113.028 41.78 112.58C40.68 112.021 39.5234 111.582 38.33 111.27C37.1404 111.584 35.9873 112.023 34.89 112.58C33.9377 113.027 32.8668 113.157 31.8352 112.95C30.8036 112.743 29.8658 112.21 29.16 111.43L27.95 104.77C27.95 104.77 32.8499 87.3098 33.8799 84.0198C34.5599 81.8898 36.8 81.3798 38.3 81.2798H38.36C39.86 81.3798 42.1 81.8898 42.78 84.0198C43.8 87.3098 48.71 104.77 48.71 104.77Z" stroke="currentcolor" stroke-width="0.75" stroke-linecap="round" stroke-linejoin="round"></path>
    <path d="M36.92 103.86H42.02C42.02 103.86 45.02 103.18 45.02 98.4897C45.839 100.702 46.2194 103.052 46.14 105.41C46.1063 106.388 45.6946 107.315 44.9915 107.995C44.2884 108.676 43.3486 109.058 42.37 109.06H36.92" stroke="currentcolor" stroke-width="0.75" stroke-linecap="round" stroke-linejoin="round"></path>
    <path d="M42.04 107.19C42.04 107.19 45.96 105.79 44.7 104.53C43.44 103.27 42.04 107.19 42.04 107.19Z" stroke="currentcolor" stroke-width="0.75" stroke-linecap="round" stroke-linejoin="round"></path>
    <path d="M54.32 75.7898L55.89 78.4498C56.7468 79.8982 57.9759 81.0906 59.4497 81.9031C60.9234 82.7156 62.5878 83.1184 64.27 83.0698L75.54 82.7298" stroke="currentcolor" stroke-width="0.75" stroke-linecap="round" stroke-linejoin="round"></path>
    <path d="M53.24 71.43L56.4 70.3C58.1468 69.6774 60.0387 69.5854 61.8377 70.0356C63.6366 70.4858 65.2623 71.458 66.51 72.83L75.51 82.73L53.21 71.43C41.97 71.43 42.73 84.02 42.73 84.02" stroke="currentcolor" stroke-width="0.75" stroke-linecap="round" stroke-linejoin="round"></path>
    <path d="M51.85 65.7998C51.85 65.7998 72.53 59.0098 71.85 46.9298C71.17 34.8498 65.57 29.3998 61.72 23.9298C54.96 14.1898 58.5 0.569824 58.5 0.569824C48.81 14.4898 55.82 26.5698 57.93 30.0498C60.04 33.5298 63.23 37.8198 61.01 45.2998C58.79 52.7798 42.61 57.0798 42.61 57.0798" stroke="currentcolor" stroke-width="0.75" stroke-linecap="round" stroke-linejoin="round"></path>
    <path d="M55.2 64.4998L46.52 55.8198" stroke="currentcolor" stroke-width="0.75" stroke-linecap="round" stroke-linejoin="round"></path>
    <path d="M62.6 60.5798L54.29 52.2698" stroke="currentcolor" stroke-width="0.75" stroke-linecap="round" stroke-linejoin="round"></path>
    <path d="M68.71 55.3599L60.28 46.9299" stroke="currentcolor" stroke-width="0.75" stroke-linecap="round" stroke-linejoin="round"></path>
    <path d="M71.9 47.2298L61.2 36.5298" stroke="currentcolor" stroke-width="0.75" stroke-linecap="round" stroke-linejoin="round"></path>
    <path d="M66.63 30.6299L53.59 17.5999" stroke="currentcolor" stroke-width="0.75" stroke-linecap="round" stroke-linejoin="round"></path>
    <path d="M57.61 10.2898L54.87 7.5498" stroke="currentcolor" stroke-width="0.75" stroke-linecap="round" stroke-linejoin="round"></path>
    <path d="M44.4899 70.0899L40.1999 72.3499L38.3099 76.7799L36.4199 72.3499L32.1299 70.0899L36.4199 67.8499L38.3099 63.4099L40.1999 67.8499L44.4899 70.0899Z" stroke="currentcolor" stroke-width="0.75" stroke-linecap="round" stroke-linejoin="round"></path>
    <path d="M47.71 82.3398C49.2525 81.8764 50.5965 80.9118 51.5293 79.5987C52.462 78.2856 52.9303 76.699 52.86 75.0898L50.86 75.8298C50.1283 76.1003 49.4844 76.5656 48.998 77.1754C48.5116 77.7852 48.201 78.5164 48.1 79.2898L47.71 82.3398Z" stroke="currentcolor" stroke-width="0.75" stroke-linecap="round" stroke-linejoin="round"></path>
    <path d="M64.05 59.5898L73.55 80.5498" stroke="currentcolor" stroke-width="0.75" stroke-linecap="round" stroke-linejoin="round"></path>
    <path d="M73.21 82.7998L47.48 111.43" stroke="currentcolor" stroke-width="0.75" stroke-linecap="round" stroke-linejoin="round"></path>
    <path d="M39.17 53.5697C45.8305 53.5697 51.23 48.1703 51.23 41.5097C51.23 34.8492 45.8305 29.4497 39.17 29.4497C32.5094 29.4497 27.11 34.8492 27.11 41.5097C27.11 48.1703 32.5094 53.5697 39.17 53.5697Z" stroke="currentcolor" stroke-width="0.75" stroke-linecap="round" stroke-linejoin="round"></path>
    <path d="M39.17 34.6897C43.5827 34.6897 47.16 31.1125 47.16 26.6997C47.16 22.287 43.5827 18.7097 39.17 18.7097C34.7572 18.7097 31.18 22.287 31.18 26.6997C31.18 31.1125 34.7572 34.6897 39.17 34.6897Z" stroke="currentcolor" stroke-width="0.75" stroke-linecap="round" stroke-linejoin="round"></path>
    <path d="M42.63 7.18994C42.6229 6.46934 42.3884 5.76937 41.96 5.18994C42.9989 5.80295 43.8074 6.74051 44.2611 7.85821C44.7148 8.97592 44.7885 10.2118 44.4708 11.3755C44.153 12.5392 43.4616 13.5661 42.5028 14.2982C41.5441 15.0302 40.3713 15.4268 39.165 15.4268C37.9587 15.4268 36.7859 15.0302 35.8271 14.2982C34.8684 13.5661 34.1769 12.5392 33.8592 11.3755C33.5415 10.2118 33.6151 8.97592 34.0688 7.85821C34.5225 6.74051 35.3311 5.80295 36.37 5.18994C35.9451 5.77058 35.7141 6.47045 35.71 7.18994C35.7576 8.07673 36.1435 8.91149 36.7881 9.52237C37.4326 10.1332 38.2869 10.4737 39.175 10.4737C40.063 10.4737 40.9173 10.1332 41.5619 9.52237C42.2065 8.91149 42.5923 8.07673 42.64 7.18994H42.63Z" stroke="currentcolor" stroke-width="0.75" stroke-linecap="round" stroke-linejoin="round"></path>
    <path d="M13.24 17.3499C12.3345 18.084 11.5876 18.9943 11.0444 20.0257C10.5012 21.057 10.1731 22.1879 10.08 23.3499C9.98616 22.187 9.65675 21.0555 9.11179 20.024C8.56682 18.9925 7.81769 18.0827 6.90997 17.3499C7.81769 16.617 8.56682 15.7072 9.11179 14.6757C9.65675 13.6443 9.98616 12.5127 10.08 11.3499C10.1731 12.5118 10.5012 13.6427 11.0444 14.6741C11.5876 15.7054 12.3345 16.6157 13.24 17.3499Z" stroke="currentcolor" stroke-width="0.75" stroke-linecap="round" stroke-linejoin="round"></path>
    <path d="M69.8 101.89C68.8914 102.622 68.1416 103.532 67.5966 104.563C67.0515 105.595 66.7226 106.727 66.63 107.89C66.5373 106.727 66.2084 105.595 65.6633 104.563C65.1183 103.532 64.3685 102.622 63.46 101.89C64.3677 101.157 65.1168 100.247 65.6618 99.2158C66.2067 98.1843 66.5362 97.0527 66.63 95.8899C66.7238 97.0527 67.0532 98.1843 67.5981 99.2158C68.1431 100.247 68.8922 101.157 69.8 101.89Z" stroke="currentcolor" stroke-width="0.75" stroke-linecap="round" stroke-linejoin="round"></path>
  </g>
  <defs>
    <clipPath id="clip0_1_3379">
      <rect width="75.2" height="113.27" fill="currentcolor" transform="translate(0.709961 0.189941)"></rect>
    </clipPath>
  </defs>
</svg>
