<?xml version="1.0" encoding="UTF-8"?>
<svg preserveAspectRatio="xMidYMid slice" xmlns="http://www.w3.org/2000/svg" width="110px" height="120px" viewBox="0 0 94 102" fill="none">
  <g clip-path="url(#clip0_1_2993)">
    <path d="M26.99 74.2202C26.59 73.7402 26.18 73.2202 25.78 72.7302" stroke="currentcolor" stroke-width="0.75" stroke-linecap="round" stroke-linejoin="round"></path>
    <path d="M22.83 68.4401C22.67 68.1601 22.5 67.8901 22.35 67.6101" stroke="currentcolor" stroke-width="0.75" stroke-linecap="round" stroke-linejoin="round"></path>
    <path d="M20.17 62.8801C20.02 62.4501 19.9 62.0501 19.79 61.6401" stroke="currentcolor" stroke-width="0.75" stroke-linecap="round" stroke-linejoin="round"></path>
    <path d="M19.65 56.4901C19.7309 56.2329 19.8312 55.9822 19.95 55.7401C20.05 55.5301 20.16 55.3201 20.27 55.1201" stroke="currentcolor" stroke-width="0.75" stroke-linecap="round" stroke-linejoin="round"></path>
    <path d="M20.27 55.1202C19.1584 53.8727 18.569 52.2455 18.6239 50.5755C18.6788 48.9055 19.3737 47.3205 20.5648 46.1486C21.7559 44.9768 23.352 44.3078 25.0227 44.2802C26.6934 44.2526 28.3108 44.8684 29.54 46.0002C25.5842 48.0126 22.3466 51.1978 20.27 55.1202Z" stroke="currentcolor" stroke-width="0.75" stroke-linecap="round" stroke-linejoin="round"></path>
    <path d="M22.35 67.6101C22.0438 67.692 21.7256 67.719 21.41 67.6901C20.7113 67.6194 20.0693 67.2743 19.6249 66.7305C19.1806 66.1868 18.9702 65.4889 19.04 64.7901C19.0757 64.4081 19.1956 64.0387 19.391 63.7085C19.5863 63.3783 19.8524 63.0954 20.17 62.8801C20.7481 64.5211 21.478 66.1046 22.35 67.6101Z" stroke="currentcolor" stroke-width="0.75" stroke-linecap="round" stroke-linejoin="round"></path>
    <path d="M30.7 78.0002C30.2903 78.3219 29.7951 78.5161 29.2759 78.5589C28.7567 78.6017 28.2364 78.4911 27.7796 78.2408C27.3227 77.9905 26.9494 77.6116 26.7059 77.1511C26.4624 76.6906 26.3595 76.1687 26.41 75.6502C26.4529 75.1255 26.6553 74.6265 26.99 74.2202C28.1061 75.5931 29.3482 76.8586 30.7 78.0002Z" stroke="currentcolor" stroke-width="0.75" stroke-linecap="round" stroke-linejoin="round"></path>
    <path d="M19.79 61.6402C19.1557 61.5013 18.5945 61.1343 18.2129 60.6089C17.8314 60.0836 17.6559 59.4364 17.72 58.7902C17.7766 58.2584 17.9905 57.7556 18.3342 57.3459C18.678 56.9362 19.1361 56.6383 19.65 56.4902C19.225 58.1874 19.2734 59.9686 19.79 61.6402Z" stroke="currentcolor" stroke-width="0.75" stroke-linecap="round" stroke-linejoin="round"></path>
    <path d="M22.83 68.4402C23.7276 69.9249 24.7092 71.3572 25.77 72.7302C25.357 72.906 24.9072 72.9781 24.46 72.9402C24.1099 72.9053 23.7703 72.8013 23.4607 72.6343C23.151 72.4672 22.8777 72.2404 22.6563 71.967C22.435 71.6935 22.27 71.3789 22.1711 71.0413C22.0722 70.7037 22.0412 70.3498 22.08 70.0002C22.1555 69.413 22.4186 68.8659 22.83 68.4402Z" stroke="currentcolor" stroke-width="0.75" stroke-linecap="round" stroke-linejoin="round"></path>
    <path d="M18.75 57.0001L9.57001 54.1001C9.57001 54.1001 9.57001 59.8301 18.75 61.1001" stroke="currentcolor" stroke-width="0.75" stroke-linecap="round" stroke-linejoin="round"></path>
    <path d="M9.57999 54.1001L12.7 39.5901L14.16 55.5201L9.57999 54.1001Z" stroke="currentcolor" stroke-width="0.75" stroke-linecap="round" stroke-linejoin="round"></path>
    <path d="M20.69 67.5101L5.69 68.9101C5.69 68.9101 9.99 63.0501 19.24 63.6201" stroke="currentcolor" stroke-width="0.75" stroke-linecap="round" stroke-linejoin="round"></path>
    <path d="M5.65 68.9102L2.38 81.0402L10.43 68.4402L5.65 68.9102Z" stroke="currentcolor" stroke-width="0.75" stroke-linecap="round" stroke-linejoin="round"></path>
    <path d="M24.55 73.0001L10.72 78.6501C10.72 78.6501 13.16 71.7801 22.17 69.6501" stroke="currentcolor" stroke-width="0.75" stroke-linecap="round" stroke-linejoin="round"></path>
    <path d="M10.72 78.65L11.15 91.2L15.16 76.8L10.72 78.65Z" stroke="currentcolor" stroke-width="0.75" stroke-linecap="round" stroke-linejoin="round"></path>
    <path d="M26.41 75.6001C26.41 75.6001 13.17 82.0601 15.34 88.1701L28.79 78.5101" stroke="currentcolor" stroke-width="0.75" stroke-linecap="round" stroke-linejoin="round"></path>
    <path d="M15.34 88.1702L18.45 92.5102C18.45 92.5102 21.26 91.6502 19.87 84.9102" stroke="currentcolor" stroke-width="0.75" stroke-linecap="round" stroke-linejoin="round"></path>
    <path d="M18.45 92.3602C18.368 93.5381 18.4116 94.7214 18.58 95.8902C18.7466 97.0658 19.2581 98.1655 20.05 99.0502C20.8396 99.833 21.8406 100.368 22.93 100.59C24.0113 100.815 25.1189 100.886 26.22 100.8C26.7425 100.836 27.2597 100.676 27.67 100.35C27.9282 100.042 28.0822 99.6609 28.11 99.2602C28.2954 98.1218 28.2248 96.9565 27.9031 95.8488C27.5815 94.7412 27.0171 93.7192 26.2508 92.8572C25.4846 91.9952 24.5358 91.3148 23.4736 90.8656C22.4113 90.4163 21.2623 90.2095 20.11 90.2602" stroke="currentcolor" stroke-width="0.75" stroke-linecap="round" stroke-linejoin="round"></path>
    <path d="M18.46 50.62C18.46 50.62 11.92 35.81 20.13 33.52L23.13 44.39" stroke="currentcolor" stroke-width="0.75" stroke-linecap="round" stroke-linejoin="round"></path>
    <path d="M20.13 33.5202C20.13 33.5202 27.07 13.3202 44.82 26.2702L36.82 27.7302C36.05 27.96 35.3448 28.3676 34.7612 28.9199C34.1776 29.4723 33.7319 30.154 33.46 30.9102C33.46 30.9102 33.75 41.6102 21.38 38.0102" stroke="currentcolor" stroke-width="0.75" stroke-linecap="round" stroke-linejoin="round"></path>
    <path d="M21.64 39.06C21.64 39.06 25.99 42 33.09 38.75C37.2086 36.9166 40.6645 33.8621 42.99 30L33.36 32" stroke="currentcolor" stroke-width="0.75" stroke-linecap="round" stroke-linejoin="round"></path>
    <path d="M46.87 23.4701C53.2489 23.4701 58.42 18.299 58.42 11.9201C58.42 5.54123 53.2489 0.370117 46.87 0.370117C40.4911 0.370117 35.32 5.54123 35.32 11.9201C35.32 18.299 40.4911 23.4701 46.87 23.4701Z" stroke="currentcolor" stroke-width="0.75" stroke-linecap="round" stroke-linejoin="round"></path>
    <path d="M50.46 19.7301C54.8562 19.7301 58.42 16.1662 58.42 11.7701C58.42 7.37387 54.8562 3.81006 50.46 3.81006C46.0638 3.81006 42.5 7.37387 42.5 11.7701C42.5 16.1662 46.0638 19.7301 50.46 19.7301Z" stroke="currentcolor" stroke-width="0.75" stroke-linecap="round" stroke-linejoin="round"></path>
    <path d="M62.99 78C62.2706 78.7066 61.3596 79.1864 60.37 79.38H33.32C32.3304 79.1864 31.4194 78.7066 30.7 78" stroke="currentcolor" stroke-width="0.75" stroke-linecap="round" stroke-linejoin="round"></path>
    <path d="M67.99 72.7302C67.59 73.2502 67.18 73.7302 66.78 74.2202" stroke="currentcolor" stroke-width="0.75" stroke-linecap="round" stroke-linejoin="round"></path>
    <path d="M71.38 67.6101C71.23 67.8901 71.06 68.1601 70.9 68.4401" stroke="currentcolor" stroke-width="0.75" stroke-linecap="round" stroke-linejoin="round"></path>
    <path d="M73.99 61.6401C73.88 62.0501 73.76 62.4501 73.61 62.8801" stroke="currentcolor" stroke-width="0.75" stroke-linecap="round" stroke-linejoin="round"></path>
    <path d="M73.46 55.1201C73.57 55.3201 73.68 55.5301 73.78 55.7401C73.8988 55.9822 73.9991 56.2329 74.08 56.4901" stroke="currentcolor" stroke-width="0.75" stroke-linecap="round" stroke-linejoin="round"></path>
    <path d="M64.19 46.0002C57.13 42.3202 36.6 42.3202 29.54 46.0002" stroke="currentcolor" stroke-width="0.75" stroke-linecap="round" stroke-linejoin="round"></path>
    <path d="M73.46 55.1202C74.5716 53.8727 75.161 52.2455 75.1061 50.5755C75.0512 48.9055 74.3563 47.3205 73.1652 46.1486C71.9741 44.9768 70.378 44.3078 68.7073 44.2802C67.0366 44.2526 65.4192 44.8684 64.19 46.0002C68.1458 48.0126 71.3834 51.1978 73.46 55.1202Z" stroke="currentcolor" stroke-width="0.75" stroke-linecap="round" stroke-linejoin="round"></path>
    <path d="M71.38 67.6101C71.6862 67.692 72.0044 67.719 72.32 67.6901C73.0187 67.6194 73.6607 67.2743 74.1051 66.7305C74.5494 66.1868 74.7598 65.4889 74.69 64.7901C74.6543 64.4081 74.5344 64.0387 74.339 63.7085C74.1437 63.3783 73.8776 63.0954 73.56 62.8801C72.9819 64.5211 72.252 66.1046 71.38 67.6101Z" stroke="currentcolor" stroke-width="0.75" stroke-linecap="round" stroke-linejoin="round"></path>
    <path d="M62.99 78C63.3997 78.3217 63.8949 78.516 64.4141 78.5587C64.9333 78.6015 65.4536 78.4909 65.9104 78.2406C66.3673 77.9904 66.7406 77.6114 66.9841 77.1509C67.2276 76.6904 67.3305 76.1685 67.28 75.65C67.2302 75.1439 67.0319 74.6638 66.71 74.27C65.5883 75.626 64.343 76.8747 62.99 78Z" stroke="currentcolor" stroke-width="0.75" stroke-linecap="round" stroke-linejoin="round"></path>
    <path d="M73.99 61.6402C74.6113 61.4868 75.1561 61.1136 75.5237 60.5898C75.8913 60.0659 76.057 59.4267 75.99 58.7902C75.9334 58.2584 75.7195 57.7556 75.3757 57.3459C75.032 56.9362 74.5739 56.6383 74.06 56.4902C74.5077 58.181 74.4835 59.9622 73.99 61.6402Z" stroke="currentcolor" stroke-width="0.75" stroke-linecap="round" stroke-linejoin="round"></path>
    <path d="M70.9 68.4402C70.0121 69.9242 69.0405 71.3565 67.99 72.7302C68.403 72.906 68.8527 72.9781 69.3 72.9402C69.6474 72.9016 69.9838 72.795 70.29 72.6263C70.5962 72.4576 70.8661 72.2303 71.0843 71.9572C71.3026 71.6842 71.4649 71.3708 71.5619 71.035C71.659 70.6992 71.6889 70.3476 71.65 70.0002C71.5744 69.413 71.3114 68.8659 70.9 68.4402Z" stroke="currentcolor" stroke-width="0.75" stroke-linecap="round" stroke-linejoin="round"></path>
    <path d="M74.99 57.0001L84.17 54.1501C84.17 54.1501 84.17 59.8801 74.99 61.1501" stroke="currentcolor" stroke-width="0.75" stroke-linecap="round" stroke-linejoin="round"></path>
    <path d="M84.16 54.1001L81.03 39.5901L79.57 55.5201L84.16 54.1001Z" stroke="currentcolor" stroke-width="0.75" stroke-linecap="round" stroke-linejoin="round"></path>
    <path d="M73.04 67.5101L88.04 68.9101C88.04 68.9101 83.7 63.0501 74.45 63.6201" stroke="currentcolor" stroke-width="0.75" stroke-linecap="round" stroke-linejoin="round"></path>
    <path d="M88.08 68.9102L91.35 81.0402L83.3 68.4402L88.08 68.9102Z" stroke="currentcolor" stroke-width="0.75" stroke-linecap="round" stroke-linejoin="round"></path>
    <path d="M69.14 73.0001L82.99 78.6501C82.99 78.6501 80.55 71.7801 71.54 69.6501" stroke="currentcolor" stroke-width="0.75" stroke-linecap="round" stroke-linejoin="round"></path>
    <path d="M83.01 78.65L82.58 91.2L78.57 76.8L83.01 78.65Z" stroke="currentcolor" stroke-width="0.75" stroke-linecap="round" stroke-linejoin="round"></path>
    <path d="M67.32 75.6001C67.32 75.6001 80.56 82.0601 78.39 88.1701L64.99 78.5101" stroke="currentcolor" stroke-width="0.75" stroke-linecap="round" stroke-linejoin="round"></path>
    <path d="M78.39 88.1702L75.28 92.5102C75.28 92.5102 72.47 91.6502 73.86 84.9102" stroke="currentcolor" stroke-width="0.75" stroke-linecap="round" stroke-linejoin="round"></path>
    <path d="M75.28 92.3602C75.362 93.5381 75.3184 94.7214 75.15 95.8902C74.9835 97.0658 74.4719 98.1655 73.68 99.0502C72.8904 99.833 71.8895 100.368 70.8 100.59C69.7187 100.815 68.6111 100.886 67.51 100.8C66.9875 100.836 66.4703 100.676 66.06 100.35C65.8018 100.042 65.6478 99.6609 65.62 99.2602C65.4346 98.1218 65.5053 96.9565 65.8269 95.8488C66.1485 94.7412 66.7129 93.7192 67.4792 92.8572C68.2454 91.9952 69.1942 91.3148 70.2565 90.8656C71.3187 90.4163 72.4678 90.2095 73.62 90.2602" stroke="currentcolor" stroke-width="0.75" stroke-linecap="round" stroke-linejoin="round"></path>
    <path d="M75.27 50.62C75.27 50.62 81.81 35.81 73.6 33.52L70.6 44.39" stroke="currentcolor" stroke-width="0.75" stroke-linecap="round" stroke-linejoin="round"></path>
    <path d="M73.6 33.5202C73.6 33.5202 66.66 13.3202 48.91 26.2702L56.91 27.7302C57.68 27.96 58.3852 28.3676 58.9688 28.9199C59.5524 29.4723 59.9981 30.154 60.27 30.9102C60.27 30.9102 59.99 41.6102 72.38 38.0002" stroke="currentcolor" stroke-width="0.75" stroke-linecap="round" stroke-linejoin="round"></path>
    <path d="M72.09 39.06C72.09 39.06 67.72 42 60.64 38.75C56.5066 36.9234 53.036 33.8683 50.7 30L60.37 32" stroke="currentcolor" stroke-width="0.75" stroke-linecap="round" stroke-linejoin="round"></path>
    <path d="M46.26 59.2L42.04 56.2L45.12 60.36L35.77 61.22L45.14 61.98L42.14 66.2L46.3 63.12L47.16 75.3L47.92 63.1L52.14 66.1L49.06 61.94L58.41 61.08L49.04 60.32L52.04 56.1L47.89 59.18L47.02 47L46.26 59.2Z" stroke="currentcolor" stroke-width="0.75" stroke-linecap="round" stroke-linejoin="round"></path>
    <path d="M35.87 53.54C34.9627 54.2732 34.2139 55.1832 33.669 56.2146C33.124 57.246 32.7944 58.3774 32.7 59.54C32.6057 58.3784 32.2771 57.2479 31.734 56.2167C31.1909 55.1854 30.4446 54.2749 29.54 53.54C30.4459 52.8063 31.1931 51.8961 31.7364 50.8647C32.2796 49.8332 32.6074 48.7021 32.7 47.54C32.7927 48.7031 33.1216 49.8351 33.6666 50.8667C34.2117 51.8984 34.9614 52.808 35.87 53.54Z" stroke="currentcolor" stroke-width="0.75" stroke-linecap="round" stroke-linejoin="round"></path>
    <path d="M62.7 70.7002C61.7941 71.4339 61.0469 72.3441 60.5036 73.3756C59.9604 74.407 59.6326 75.5381 59.54 76.7002C59.4473 75.5371 59.1184 74.4051 58.5734 73.3735C58.0283 72.3418 57.2786 71.4322 56.37 70.7002C57.2773 69.967 58.0261 69.0571 58.571 68.0257C59.116 66.9943 59.4456 65.8629 59.54 64.7002C59.6343 65.8619 59.9629 66.9924 60.506 68.0236C61.0491 69.0548 61.7954 69.9653 62.7 70.7002Z" stroke="currentcolor" stroke-width="0.75" stroke-linecap="round" stroke-linejoin="round"></path>
    <path d="M20.17 62.8801H32.03" stroke="currentcolor" stroke-width="0.75" stroke-linecap="round" stroke-linejoin="round"></path>
    <path d="M22.83 68.4402H29.05" stroke="currentcolor" stroke-width="0.75" stroke-linecap="round" stroke-linejoin="round"></path>
    <path d="M25.77 72.7302H28.06" stroke="currentcolor" stroke-width="0.75" stroke-linecap="round" stroke-linejoin="round"></path>
    <path d="M74.08 56.4902H64.19" stroke="currentcolor" stroke-width="0.75" stroke-linecap="round" stroke-linejoin="round"></path>
    <path d="M73.56 62.8801H66.75" stroke="currentcolor" stroke-width="0.75" stroke-linecap="round" stroke-linejoin="round"></path>
    <path d="M70.9 68.4402H68.26" stroke="currentcolor" stroke-width="0.75" stroke-linecap="round" stroke-linejoin="round"></path>
    <path d="M39.99 41.28C41.1719 41.28 42.13 40.3219 42.13 39.14C42.13 37.9581 41.1719 37 39.99 37C38.8081 37 37.85 37.9581 37.85 39.14C37.85 40.3219 38.8081 41.28 39.99 41.28Z" stroke="currentcolor" stroke-width="0.75" stroke-linecap="round" stroke-linejoin="round"></path>
    <path d="M53.74 41.28C54.9219 41.28 55.88 40.3219 55.88 39.14C55.88 37.9581 54.9219 37 53.74 37C52.5581 37 51.6 37.9581 51.6 39.14C51.6 40.3219 52.5581 41.28 53.74 41.28Z" stroke="currentcolor" stroke-width="0.75" stroke-linecap="round" stroke-linejoin="round"></path>
    <path d="M32.85 10.4202C31.3971 9.13209 29.4941 8.47029 27.5555 8.57892C25.617 8.68756 23.7998 9.55783 22.5 11.0002C21.8101 11.7603 20.9688 12.3677 20.0302 12.7834C19.0917 13.199 18.0765 13.4137 17.05 13.4137C16.0235 13.4137 15.0083 13.199 14.0697 12.7834C13.1311 12.3677 12.2899 11.7603 11.6 11.0002C10.9101 10.2401 10.0688 9.63265 9.13024 9.21699C8.19165 8.80132 7.17649 8.58659 6.14998 8.58659C5.12347 8.58659 4.10831 8.80132 3.16972 9.21699C2.23113 9.63265 1.38987 10.2401 0.699982 11.0002" stroke="currentcolor" stroke-width="0.75" stroke-linecap="round" stroke-linejoin="round"></path>
    <path d="M32.51 14.1001C31.0585 12.812 29.1577 12.1484 27.2199 12.2532C25.2822 12.358 23.464 13.2229 22.16 14.6601C21.4701 15.4202 20.6288 16.0276 19.6903 16.4433C18.7517 16.8589 17.7365 17.0736 16.71 17.0736C15.6835 17.0736 14.6683 16.8589 13.7297 16.4433C12.7911 16.0276 11.9499 15.4202 11.26 14.6601C10.571 13.9002 9.73061 13.2929 8.79284 12.8774C7.85508 12.4618 6.84071 12.2471 5.81499 12.2471C4.78927 12.2471 3.77491 12.4618 2.83715 12.8774C1.89938 13.2929 1.05898 13.9002 0.369995 14.6601" stroke="currentcolor" stroke-width="0.75" stroke-linecap="round" stroke-linejoin="round"></path>
    <path d="M32.51 18.0002C31.0598 16.7109 29.1597 16.0455 27.222 16.1484C25.2843 16.2514 23.4654 17.1144 22.16 18.5502C21.4701 19.3103 20.6288 19.9177 19.6903 20.3333C18.7517 20.749 17.7365 20.9637 16.71 20.9637C15.6835 20.9637 14.6683 20.749 13.7297 20.3333C12.7911 19.9177 11.9499 19.3103 11.26 18.5502C10.571 17.7903 9.73061 17.183 8.79284 16.7675C7.85508 16.3519 6.84071 16.1372 5.81499 16.1372C4.78927 16.1372 3.77491 16.3519 2.83715 16.7675C1.89938 17.183 1.05898 17.7903 0.369995 18.5502" stroke="currentcolor" stroke-width="0.75" stroke-linecap="round" stroke-linejoin="round"></path>
    <path d="M93.37 11.0002C91.9233 9.6954 90.0183 9.01747 88.0725 9.11494C86.1268 9.21241 84.2991 10.0773 82.99 11.5202C82.3001 12.2803 81.4589 12.8877 80.5203 13.3033C79.5817 13.719 78.5665 13.9337 77.54 13.9337C76.5135 13.9337 75.4983 13.719 74.5597 13.3033C73.6212 12.8877 72.7799 12.2803 72.09 11.5202C71.4001 10.76 70.5589 10.1526 69.6203 9.73697C68.6817 9.32131 67.6665 9.10658 66.64 9.10658C65.6135 9.10658 64.5983 9.32131 63.6597 9.73697C62.7212 10.1526 61.8799 10.76 61.19 11.5202" stroke="currentcolor" stroke-width="0.75" stroke-linecap="round" stroke-linejoin="round"></path>
    <path d="M92.99 14.6502C91.5398 13.3609 89.6397 12.6955 87.702 12.7985C85.7643 12.9015 83.9454 13.7645 82.64 15.2002C81.9501 15.9603 81.1088 16.5677 80.1703 16.9834C79.2317 17.399 78.2165 17.6138 77.19 17.6138C76.1635 17.6138 75.1483 17.399 74.2097 16.9834C73.2711 16.5677 72.4299 15.9603 71.74 15.2002C71.0501 14.4401 70.2089 13.8327 69.2703 13.417C68.3317 13.0013 67.3165 12.7866 66.29 12.7866C65.2635 12.7866 64.2483 13.0013 63.3097 13.417C62.3711 13.8327 61.5299 14.4401 60.84 15.2002" stroke="currentcolor" stroke-width="0.75" stroke-linecap="round" stroke-linejoin="round"></path>
    <path d="M92.99 18.5002C91.5386 17.2121 89.6377 16.5485 87.6999 16.6534C85.7622 16.7582 83.944 17.6231 82.64 19.0602C81.9501 19.8203 81.1088 20.4277 80.1703 20.8434C79.2317 21.2591 78.2165 21.4738 77.19 21.4738C76.1635 21.4738 75.1483 21.2591 74.2097 20.8434C73.2711 20.4277 72.4299 19.8203 71.74 19.0602C71.0501 18.3001 70.2089 17.6927 69.2703 17.277C68.3317 16.8614 67.3165 16.6466 66.29 16.6466C65.2635 16.6466 64.2483 16.8614 63.3097 17.277C62.3711 17.6927 61.5299 18.3001 60.84 19.0602" stroke="currentcolor" stroke-width="0.75" stroke-linecap="round" stroke-linejoin="round"></path>
  </g>
  <defs>
    <clipPath id="clip0_1_2993">
      <rect width="93.75" height="101.21" fill="currentcolor" transform="translate(-0.0100098)"></rect>
    </clipPath>
  </defs>
</svg>
