<?xml version="1.0" encoding="UTF-8"?>
<svg preserveAspectRatio="xMidYMid slice" xmlns="http://www.w3.org/2000/svg" width="164px" height="240px" viewBox="0 0 67 98" fill="none">
  <g clip-path="url(#clip0_1_3419)">
    <path d="M33.83 33.1101C33.83 33.1101 29.1 49.7401 14.22 49.7401C14.22 49.7401 12.37 47.2201 10.52 48.7401C8.66998 50.2601 9.59998 63.1001 15.52 63.1001" stroke="currentcolor" stroke-width="0.75" stroke-linecap="round" stroke-linejoin="round"></path>
    <path d="M15.35 53.5801C15.385 58.2813 15.8638 62.9688 16.78 67.5801C17.91 72.8101 22.04 77.7501 27.63 81.7901C28.8625 82.6659 30.338 83.1344 31.85 83.1301H33.85" stroke="currentcolor" stroke-width="0.75" stroke-linecap="round" stroke-linejoin="round"></path>
    <path d="M21.75 76.58C21.75 76.58 23.49 86.19 16.56 91.73C12.1701 95.0924 6.81868 96.9603 1.28998 97.06L11.61 60.52" stroke="currentcolor" stroke-width="0.75" stroke-linecap="round" stroke-linejoin="round"></path>
    <path d="M15.02 63.1501L5.84998 96.5701" stroke="currentcolor" stroke-width="0.75" stroke-linecap="round" stroke-linejoin="round"></path>
    <path d="M17.63 70.3L10.83 95.08" stroke="currentcolor" stroke-width="0.75" stroke-linecap="round" stroke-linejoin="round"></path>
    <path d="M20.97 75.6799L16.56 91.7299" stroke="currentcolor" stroke-width="0.75" stroke-linecap="round" stroke-linejoin="round"></path>
    <path d="M26.85 73.4399C27.501 73.9185 28.2922 74.1681 29.1 74.1499C29.8996 74.1314 30.6975 74.0679 31.49 73.9599C32.2646 73.8524 33.0534 73.9173 33.8 74.1499" stroke="currentcolor" stroke-width="0.75" stroke-linecap="round" stroke-linejoin="round"></path>
    <path d="M27.91 73.9699C27.91 73.9699 28.15 71.6799 33.84 71.6799" stroke="currentcolor" stroke-width="0.75" stroke-linecap="round" stroke-linejoin="round"></path>
    <path d="M30.07 75.78C30.5229 76.3203 31.0965 76.7465 31.7443 77.0244C32.3922 77.3024 33.0964 77.4242 33.8 77.38" stroke="currentcolor" stroke-width="0.75" stroke-linecap="round" stroke-linejoin="round"></path>
    <path d="M19.02 53.3C20.3933 51.8148 22.2989 50.9339 24.32 50.85C25.3218 50.8224 26.3157 51.0349 27.2186 51.4698C28.1214 51.9048 28.9071 52.5495 29.51 53.35C30.5523 55.088 31.0179 57.1113 30.84 59.13C30.79 61.9594 30.3388 64.7674 29.5 67.47C29.5 67.47 30.66 68.96 33.83 68.96" stroke="currentcolor" stroke-width="0.75" stroke-linecap="round" stroke-linejoin="round"></path>
    <path d="M19.91 56.0601C19.91 56.0601 23.34 58.7801 28.41 56.0601" stroke="currentcolor" stroke-width="0.75" stroke-linecap="round" stroke-linejoin="round"></path>
    <path d="M33.83 26.97C30.34 46.07 11.83 48.25 11.83 48.25C11.83 48.25 9.04998 33.79 20.72 23.98" stroke="currentcolor" stroke-width="0.75" stroke-linecap="round" stroke-linejoin="round"></path>
    <path d="M12.66 33C14.53 28 9.79998 25.46 9.79998 25.46C9.79998 25.46 7.90998 30.49 12.66 33Z" stroke="currentcolor" stroke-width="0.75" stroke-linecap="round" stroke-linejoin="round"></path>
    <path d="M15.26 28.0199C18.79 24.0199 15.26 19.9399 15.26 19.9399C15.26 19.9399 11.72 23.9799 15.26 28.0199Z" stroke="currentcolor" stroke-width="0.75" stroke-linecap="round" stroke-linejoin="round"></path>
    <path d="M22.7 33.1899C18.27 30.1899 14.7 34.1899 14.7 34.1899C14.7 34.1899 19.12 37.1899 22.7 33.1899Z" stroke="currentcolor" stroke-width="0.75" stroke-linecap="round" stroke-linejoin="round"></path>
    <path d="M25.66 28.9101C21.46 25.5801 17.6 29.3001 17.6 29.3001C17.6 29.3001 21.8 32.6401 25.66 28.9101Z" stroke="currentcolor" stroke-width="0.75" stroke-linecap="round" stroke-linejoin="round"></path>
    <path d="M29.29 16.89C30.44 18.26 28.71 20.42 28.71 20.42C29.1836 20.6812 29.5402 21.1127 29.7074 21.6272C29.8745 22.1416 29.8397 22.7003 29.61 23.19H21.9L23.17 15.59C23.6856 15.4521 24.2343 15.5146 24.7057 15.7651C25.177 16.0156 25.5358 16.4355 25.71 16.94C25.71 16.94 28.14 15.52 29.29 16.89Z" stroke="currentcolor" stroke-width="0.75" stroke-linecap="round" stroke-linejoin="round"></path>
    <path d="M33.8 33.1201C33.8 33.1201 38.52 49.7401 53.41 49.7401C53.41 49.7401 55.26 47.2201 57.1 48.7401C58.94 50.2601 58.03 63.0901 52.1 63.0901" stroke="currentcolor" stroke-width="0.75" stroke-linecap="round" stroke-linejoin="round"></path>
    <path d="M52.27 53.5801C52.2444 58.3012 51.7689 63.0092 50.85 67.6401C49.72 72.8201 45.59 77.7601 39.99 81.8001C38.7641 82.6949 37.2877 83.1812 35.77 83.1901H33.77" stroke="currentcolor" stroke-width="0.75" stroke-linecap="round" stroke-linejoin="round"></path>
    <path d="M45.91 76.59C45.91 76.59 44.14 86.19 51.06 91.74C55.4533 95.1032 60.8081 96.971 66.34 97.07L56.01 60.53" stroke="currentcolor" stroke-width="0.75" stroke-linecap="round" stroke-linejoin="round"></path>
    <path d="M52.6 63.1501L61.77 96.5801" stroke="currentcolor" stroke-width="0.75" stroke-linecap="round" stroke-linejoin="round"></path>
    <path d="M50 70.3101L56.8 95.0901" stroke="currentcolor" stroke-width="0.75" stroke-linecap="round" stroke-linejoin="round"></path>
    <path d="M46.66 75.6799L51.06 91.7399" stroke="currentcolor" stroke-width="0.75" stroke-linecap="round" stroke-linejoin="round"></path>
    <path d="M40.77 73.45C40.1206 73.9244 39.3341 74.1737 38.53 74.16C37.7302 74.1384 36.9322 74.0717 36.14 73.9599C35.3647 73.855 34.5757 73.9233 33.83 74.16" stroke="currentcolor" stroke-width="0.75" stroke-linecap="round" stroke-linejoin="round"></path>
    <path d="M39.76 73.9699C39.76 73.9699 39.52 71.6799 33.83 71.6799" stroke="currentcolor" stroke-width="0.75" stroke-linecap="round" stroke-linejoin="round"></path>
    <path d="M37.56 75.79C37.1055 76.3278 36.5315 76.7518 35.8838 77.0279C35.236 77.304 34.5327 77.4246 33.83 77.38" stroke="currentcolor" stroke-width="0.75" stroke-linecap="round" stroke-linejoin="round"></path>
    <path d="M48.61 53.3099C47.2367 51.8246 45.3311 50.9437 43.31 50.8599C42.3077 50.8289 41.3127 51.04 40.4092 51.4752C39.5058 51.9103 38.7205 52.5568 38.12 53.3599C37.073 55.0926 36.6038 57.1132 36.78 59.1299C36.8292 61.9594 37.2804 64.7675 38.12 67.4699C38.12 67.4699 36.97 68.9599 33.8 68.9599" stroke="currentcolor" stroke-width="0.75" stroke-linecap="round" stroke-linejoin="round"></path>
    <path d="M47.68 56.0701C47.68 56.0701 44.24 58.7901 39.18 56.0701" stroke="currentcolor" stroke-width="0.75" stroke-linecap="round" stroke-linejoin="round"></path>
    <path d="M33.8 26.97C37.29 46.08 55.8 48.26 55.8 48.26C55.8 48.26 58.58 33.79 46.91 23.99" stroke="currentcolor" stroke-width="0.75" stroke-linecap="round" stroke-linejoin="round"></path>
    <path d="M54.96 33.01C53.09 28.01 57.83 25.46 57.83 25.46C57.83 25.46 59.7 30.49 54.96 33.01Z" stroke="currentcolor" stroke-width="0.75" stroke-linecap="round" stroke-linejoin="round"></path>
    <path d="M52.37 28.02C48.83 24.02 52.37 19.95 52.37 19.95C52.37 19.95 55.91 23.99 52.37 28.02Z" stroke="currentcolor" stroke-width="0.75" stroke-linecap="round" stroke-linejoin="round"></path>
    <path d="M44.91 33.1899C49.34 30.1899 52.91 34.1899 52.91 34.1899C52.91 34.1899 48.51 37.1899 44.91 33.1899Z" stroke="currentcolor" stroke-width="0.75" stroke-linecap="round" stroke-linejoin="round"></path>
    <path d="M41.96 28.9199C46.16 25.5799 50.03 29.3099 50.03 29.3099C50.03 29.3099 45.82 32.6399 41.96 28.9199Z" stroke="currentcolor" stroke-width="0.75" stroke-linecap="round" stroke-linejoin="round"></path>
    <path d="M38.34 16.89C37.18 18.26 38.92 20.42 38.92 20.42C38.4463 20.6813 38.0891 21.1122 37.9203 21.6261C37.7514 22.14 37.7835 22.6988 38.01 23.19H45.73L44.46 15.58C43.9507 15.4431 43.4087 15.499 42.9381 15.737C42.4675 15.9751 42.1014 16.3786 41.91 16.87C41.91 16.87 39.49 15.52 38.34 16.89Z" stroke="currentcolor" stroke-width="0.75" stroke-linecap="round" stroke-linejoin="round"></path>
    <path d="M9.65997 45.19C6.83723 40.8143 5.24738 35.7581 5.05802 30.5544C4.86867 25.3507 6.08682 20.1923 8.58406 15.623C11.0813 11.0537 14.7651 7.24289 19.2471 4.59221C23.7291 1.94153 28.8433 0.549232 34.0504 0.5621C39.2575 0.574968 44.3647 1.99252 48.8336 4.66532C53.3024 7.33812 56.9674 11.1671 59.442 15.7487C61.9166 20.3303 63.1093 25.4946 62.8942 30.6973C62.6791 35.9 61.0643 40.9483 58.22 45.31" stroke="currentcolor" stroke-width="0.75" stroke-linecap="round" stroke-linejoin="round"></path>
    <path d="M8.19997 48.2601C7.30148 48.9844 6.55911 49.8833 6.0177 50.9025C5.4763 51.9217 5.1471 53.0401 5.04997 54.1901C4.95352 53.041 4.62563 51.9233 4.08601 50.9042C3.54639 49.8851 2.8062 48.9857 1.90997 48.2601C2.80736 47.5333 3.54824 46.6323 4.0879 45.6114C4.62757 44.5905 4.95484 43.4709 5.04997 42.3201C5.14578 43.4718 5.47436 44.5921 6.01581 45.6131C6.55726 46.6341 7.30031 47.5346 8.19997 48.2601Z" stroke="currentcolor" stroke-width="0.75" stroke-linecap="round" stroke-linejoin="round"></path>
    <path d="M66.06 48.2601C65.1619 48.9848 64.4198 49.8838 63.8785 50.9029C63.3371 51.922 63.0077 53.0402 62.91 54.1901C62.8142 53.0383 62.4856 51.918 61.9441 50.897C61.4027 49.876 60.6596 48.9755 59.76 48.2501C60.6585 47.5258 61.4008 46.6269 61.9422 45.6076C62.4837 44.5884 62.8129 43.4701 62.91 42.3201C63.0064 43.4717 63.3352 44.5918 63.8766 45.6127C64.418 46.6336 65.1608 47.5342 66.06 48.2601Z" stroke="currentcolor" stroke-width="0.75" stroke-linecap="round" stroke-linejoin="round"></path>
  </g>
  <defs>
    <clipPath id="clip0_1_3419">
      <rect width="65.81" height="97.25" fill="currentcolor" transform="translate(0.909973 0.189941)"></rect>
    </clipPath>
  </defs>
</svg>
