<?xml version="1.0" encoding="UTF-8"?>
<svg preserveAspectRatio="xMidYMid slice" xmlns="http://www.w3.org/2000/svg" width="120px" height="118px" viewBox="0 0 100 99" fill="none">
  <g clip-path="url(#clip0_1_3212)">
    <path d="M49.7001 23.0999C49.7001 23.0999 36.3501 22.7399 29.4301 28.9299L31.3501 32.8399C33.5187 31.9795 35.7398 31.2581 38.0001 30.6799C38.0001 30.6799 42.3201 23.1099 49.7001 30.1899" stroke="currentcolor" stroke-width="0.75" stroke-linecap="round" stroke-linejoin="round"></path>
    <path d="M31.35 32.8399L11.6 44.2499C3.40003 48.3599 0.37003 42.0999 0.38003 42.0999C5.65003 46.6299 13.29 42.0999 17.49 35.7799L29.43 28.9299" stroke="currentcolor" stroke-width="0.75" stroke-linecap="round" stroke-linejoin="round"></path>
    <path d="M6.01001 45.6299L49.7 78.9199" stroke="currentcolor" stroke-width="0.75" stroke-linecap="round" stroke-linejoin="round"></path>
    <path d="M49.7 20.1099V88.1899" stroke="currentcolor" stroke-width="0.75" stroke-linecap="round" stroke-linejoin="round"></path>
    <path d="M49.7 79.8499L44 85.3399V98.3198L49.7 91.8298" stroke="currentcolor" stroke-width="0.75" stroke-linecap="round" stroke-linejoin="round"></path>
    <path d="M49.7 82.9299L46.07 86.2699" stroke="currentcolor" stroke-width="0.75" stroke-linecap="round" stroke-linejoin="round"></path>
    <path d="M49.7 86.8298L46.85 89.8798" stroke="currentcolor" stroke-width="0.75" stroke-linecap="round" stroke-linejoin="round"></path>
    <path d="M49.7 17.67L43.52 21.65L49.7 3.96997" stroke="currentcolor" stroke-width="0.75" stroke-linecap="round" stroke-linejoin="round"></path>
    <path d="M49.7 23.0999C49.7 23.0999 63 22.7399 70 28.9299L68.08 32.8399C65.9016 31.9783 63.6704 31.2569 61.4 30.6799C61.4 30.6799 57.08 23.1099 49.7 30.1899" stroke="currentcolor" stroke-width="0.75" stroke-linecap="round" stroke-linejoin="round"></path>
    <path d="M68.05 32.8399L87.8 44.2499C96 48.3599 99 42.0999 99 42.0999C93.73 46.6299 86.09 42.0999 81.89 35.7799L70 28.9299" stroke="currentcolor" stroke-width="0.75" stroke-linecap="round" stroke-linejoin="round"></path>
    <path d="M93.39 45.6299L49.7 78.9199" stroke="currentcolor" stroke-width="0.75" stroke-linecap="round" stroke-linejoin="round"></path>
    <path d="M49.7 79.8499L55.4 85.3399V98.3198L49.7 91.8298" stroke="currentcolor" stroke-width="0.75" stroke-linecap="round" stroke-linejoin="round"></path>
    <path d="M49.7 82.9299L53.33 86.2699" stroke="currentcolor" stroke-width="0.75" stroke-linecap="round" stroke-linejoin="round"></path>
    <path d="M49.7 86.8298L52.55 89.8798" stroke="currentcolor" stroke-width="0.75" stroke-linecap="round" stroke-linejoin="round"></path>
    <path d="M49.7 17.67L55.88 21.65L49.7 3.96997" stroke="currentcolor" stroke-width="0.75" stroke-linecap="round" stroke-linejoin="round"></path>
    <path d="M39.32 53.3699C40.5017 53.3757 41.653 52.9966 42.6 52.2899C41.6204 53.9537 40.1208 55.2491 38.3323 55.9765C36.5439 56.7039 34.5658 56.8229 32.703 56.3152C30.8402 55.8076 29.1961 54.7013 28.024 53.1671C26.8519 51.6328 26.2169 49.7556 26.2169 47.8249C26.2169 45.8942 26.8519 44.017 28.024 42.4827C29.1961 40.9485 30.8402 39.8423 32.703 39.3346C34.5658 38.8269 36.5439 38.9459 38.3323 39.6733C40.1208 40.4007 41.6204 41.6961 42.6 43.3599C41.653 42.6532 40.5017 42.2741 39.32 42.2799C38.5721 42.2481 37.8254 42.368 37.1249 42.6324C36.4245 42.8967 35.7847 43.3 35.2442 43.8181C34.7037 44.3361 34.2736 44.9581 33.9798 45.6467C33.686 46.3353 33.5345 47.0762 33.5345 47.8249C33.5345 48.5736 33.686 49.3145 33.9798 50.0031C34.2736 50.6917 34.7037 51.3137 35.2442 51.8318C35.7847 52.3498 36.4245 52.7531 37.1249 53.0174C37.8254 53.2818 38.5721 53.4017 39.32 53.3699Z" stroke="currentcolor" stroke-width="0.75" stroke-linecap="round" stroke-linejoin="round"></path>
    <path d="M65.0801 54.3798C68.2005 54.3798 70.7301 51.8502 70.7301 48.7298C70.7301 45.6094 68.2005 43.0798 65.0801 43.0798C61.9596 43.0798 59.4301 45.6094 59.4301 48.7298C59.4301 51.8502 61.9596 54.3798 65.0801 54.3798Z" stroke="currentcolor" stroke-width="0.75" stroke-linecap="round" stroke-linejoin="round"></path>
    <path d="M65.08 35.5398V41.9098" stroke="currentcolor" stroke-width="0.75" stroke-linecap="round" stroke-linejoin="round"></path>
    <path d="M65.08 55.5598V61.9298" stroke="currentcolor" stroke-width="0.75" stroke-linecap="round" stroke-linejoin="round"></path>
    <path d="M78.28 48.73H71.91" stroke="currentcolor" stroke-width="0.75" stroke-linecap="round" stroke-linejoin="round"></path>
    <path d="M58.25 48.73H51.88" stroke="currentcolor" stroke-width="0.75" stroke-linecap="round" stroke-linejoin="round"></path>
    <path d="M74.41 39.3999L69.91 43.9099" stroke="currentcolor" stroke-width="0.75" stroke-linecap="round" stroke-linejoin="round"></path>
    <path d="M60.25 53.5598L55.7401 58.0698" stroke="currentcolor" stroke-width="0.75" stroke-linecap="round" stroke-linejoin="round"></path>
    <path d="M74.41 58.0698L69.91 53.5598" stroke="currentcolor" stroke-width="0.75" stroke-linecap="round" stroke-linejoin="round"></path>
    <path d="M60.25 43.9099L55.7401 39.3999" stroke="currentcolor" stroke-width="0.75" stroke-linecap="round" stroke-linejoin="round"></path>
    <path d="M67.6 42.3899L69.08 38.6799" stroke="currentcolor" stroke-width="0.75" stroke-linecap="round" stroke-linejoin="round"></path>
    <path d="M61.08 58.7898L62.56 55.0798" stroke="currentcolor" stroke-width="0.75" stroke-linecap="round" stroke-linejoin="round"></path>
    <path d="M71.42 51.2598L75.13 52.7298" stroke="currentcolor" stroke-width="0.75" stroke-linecap="round" stroke-linejoin="round"></path>
    <path d="M55.02 44.7397L58.73 46.2097" stroke="currentcolor" stroke-width="0.75" stroke-linecap="round" stroke-linejoin="round"></path>
    <path d="M71.35 46.03L75.02 44.45" stroke="currentcolor" stroke-width="0.75" stroke-linecap="round" stroke-linejoin="round"></path>
    <path d="M55.14 53.0199L58.81 51.4399" stroke="currentcolor" stroke-width="0.75" stroke-linecap="round" stroke-linejoin="round"></path>
    <path d="M67.78 54.9998L69.36 58.6698" stroke="currentcolor" stroke-width="0.75" stroke-linecap="round" stroke-linejoin="round"></path>
    <path d="M60.79 38.7998L62.38 42.4598" stroke="currentcolor" stroke-width="0.75" stroke-linecap="round" stroke-linejoin="round"></path>
    <path d="M49.7 54.1499L31.35 80.4099L44 89.8799" stroke="currentcolor" stroke-width="0.75" stroke-linecap="round" stroke-linejoin="round"></path>
    <path d="M49.7 54.1499L68.05 80.4099L55.4 89.8799" stroke="currentcolor" stroke-width="0.75" stroke-linecap="round" stroke-linejoin="round"></path>
    <path d="M30.85 72.7498C29.9423 73.4826 29.1932 74.3924 28.6482 75.4239C28.1032 76.4554 27.7738 77.5869 27.68 78.7498C27.5862 77.5869 27.2568 76.4554 26.7118 75.4239C26.1669 74.3924 25.4177 73.4826 24.51 72.7498C25.4186 72.0177 26.1683 71.1081 26.7134 70.0765C27.2584 69.0448 27.5874 67.9128 27.68 66.7498C27.7727 67.9128 28.1016 69.0448 28.6466 70.0765C29.1917 71.1081 29.9414 72.0177 30.85 72.7498Z" stroke="currentcolor" stroke-width="0.75" stroke-linecap="round" stroke-linejoin="round"></path>
    <path d="M73.13 72.7498C72.2246 73.4839 71.4777 74.3942 70.9345 75.4256C70.3913 76.4569 70.0632 77.5878 69.97 78.7498C69.8762 77.5869 69.5468 76.4554 69.0019 75.4239C68.4569 74.3924 67.7078 73.4826 66.8 72.7498C67.7086 72.0177 68.4584 71.1081 69.0034 70.0765C69.5485 69.0448 69.8774 67.9128 69.97 66.7498C70.0626 67.9118 70.3905 69.0429 70.9337 70.0744C71.4769 71.1058 72.2242 72.016 73.13 72.7498Z" stroke="currentcolor" stroke-width="0.75" stroke-linecap="round" stroke-linejoin="round"></path>
    <path d="M42.44 18.0899C41.0088 16.6515 40.0358 14.8215 39.6436 12.8307C39.2515 10.84 39.4579 8.77761 40.2367 6.90399C41.0155 5.03036 42.3318 3.42942 44.0196 2.30319C45.7074 1.17697 47.691 0.575928 49.72 0.575928C51.7491 0.575928 53.7326 1.17697 55.4204 2.30319C57.1082 3.42942 58.4246 5.03036 59.2034 6.90399C59.9822 8.77761 60.1885 10.84 59.7964 12.8307C59.4043 14.8215 58.4312 16.6515 57 18.0899" stroke="currentcolor" stroke-width="0.75" stroke-linecap="round" stroke-linejoin="round"></path>
    <path d="M49.7001 23.0999C49.7001 23.0999 36.3501 22.7399 29.4301 28.9299L31.3501 32.8399C33.5187 31.9795 35.7398 31.2581 38.0001 30.6799C38.0001 30.6799 42.3201 23.1099 49.7001 30.1899" stroke="currentcolor" stroke-width="0.75" stroke-linecap="round" stroke-linejoin="round"></path>
    <path d="M31.35 32.8399L11.6 44.2499C3.40003 48.3599 0.37003 42.0999 0.38003 42.0999C5.65003 46.6299 13.29 42.0999 17.49 35.7799L29.43 28.9299" stroke="currentcolor" stroke-width="0.75" stroke-linecap="round" stroke-linejoin="round"></path>
    <path d="M6.01001 45.6299L49.7 78.9199" stroke="currentcolor" stroke-width="0.75" stroke-linecap="round" stroke-linejoin="round"></path>
    <path d="M49.7 20.1099V88.1899" stroke="currentcolor" stroke-width="0.75" stroke-linecap="round" stroke-linejoin="round"></path>
    <path d="M49.7 79.8499L44 85.3399V98.3198L49.7 91.8298" stroke="currentcolor" stroke-width="0.75" stroke-linecap="round" stroke-linejoin="round"></path>
    <path d="M49.7 82.9299L46.07 86.2699" stroke="currentcolor" stroke-width="0.75" stroke-linecap="round" stroke-linejoin="round"></path>
    <path d="M49.7 86.8298L46.85 89.8798" stroke="currentcolor" stroke-width="0.75" stroke-linecap="round" stroke-linejoin="round"></path>
    <path d="M49.7 17.67L43.52 21.65L49.7 3.96997" stroke="currentcolor" stroke-width="0.75" stroke-linecap="round" stroke-linejoin="round"></path>
    <path d="M49.7 23.0999C49.7 23.0999 63 22.7399 70 28.9299L68.08 32.8399C65.9016 31.9783 63.6704 31.2569 61.4 30.6799C61.4 30.6799 57.08 23.1099 49.7 30.1899" stroke="currentcolor" stroke-width="0.75" stroke-linecap="round" stroke-linejoin="round"></path>
    <path d="M68.05 32.8399L87.8 44.2499C96 48.3599 99 42.0999 99 42.0999C93.73 46.6299 86.09 42.0999 81.89 35.7799L70 28.9299" stroke="currentcolor" stroke-width="0.75" stroke-linecap="round" stroke-linejoin="round"></path>
    <path d="M93.39 45.6299L49.7 78.9199" stroke="currentcolor" stroke-width="0.75" stroke-linecap="round" stroke-linejoin="round"></path>
    <path d="M49.7 79.8499L55.4 85.3399V98.3198L49.7 91.8298" stroke="currentcolor" stroke-width="0.75" stroke-linecap="round" stroke-linejoin="round"></path>
    <path d="M49.7 82.9299L53.33 86.2699" stroke="currentcolor" stroke-width="0.75" stroke-linecap="round" stroke-linejoin="round"></path>
    <path d="M49.7 86.8298L52.55 89.8798" stroke="currentcolor" stroke-width="0.75" stroke-linecap="round" stroke-linejoin="round"></path>
    <path d="M49.7 17.67L55.88 21.65L49.7 3.96997" stroke="currentcolor" stroke-width="0.75" stroke-linecap="round" stroke-linejoin="round"></path>
    <path d="M39.32 53.3699C40.5017 53.3757 41.653 52.9966 42.6 52.2899C41.6204 53.9537 40.1208 55.2491 38.3323 55.9765C36.5439 56.7039 34.5658 56.8229 32.703 56.3152C30.8402 55.8076 29.1961 54.7013 28.024 53.1671C26.8519 51.6328 26.2169 49.7556 26.2169 47.8249C26.2169 45.8942 26.8519 44.017 28.024 42.4827C29.1961 40.9485 30.8402 39.8423 32.703 39.3346C34.5658 38.8269 36.5439 38.9459 38.3323 39.6733C40.1208 40.4007 41.6204 41.6961 42.6 43.3599C41.653 42.6532 40.5017 42.2741 39.32 42.2799C38.5721 42.2481 37.8254 42.368 37.1249 42.6324C36.4245 42.8967 35.7847 43.3 35.2442 43.8181C34.7037 44.3361 34.2736 44.9581 33.9798 45.6467C33.686 46.3353 33.5345 47.0762 33.5345 47.8249C33.5345 48.5736 33.686 49.3145 33.9798 50.0031C34.2736 50.6917 34.7037 51.3137 35.2442 51.8318C35.7847 52.3498 36.4245 52.7531 37.1249 53.0174C37.8254 53.2818 38.5721 53.4017 39.32 53.3699Z" stroke="currentcolor" stroke-width="0.75" stroke-linecap="round" stroke-linejoin="round"></path>
    <path d="M65.0801 54.3798C68.2005 54.3798 70.7301 51.8502 70.7301 48.7298C70.7301 45.6094 68.2005 43.0798 65.0801 43.0798C61.9596 43.0798 59.4301 45.6094 59.4301 48.7298C59.4301 51.8502 61.9596 54.3798 65.0801 54.3798Z" stroke="currentcolor" stroke-width="0.75" stroke-linecap="round" stroke-linejoin="round"></path>
    <path d="M65.08 35.5398V41.9098" stroke="currentcolor" stroke-width="0.75" stroke-linecap="round" stroke-linejoin="round"></path>
    <path d="M65.08 55.5598V61.9298" stroke="currentcolor" stroke-width="0.75" stroke-linecap="round" stroke-linejoin="round"></path>
    <path d="M78.28 48.73H71.91" stroke="currentcolor" stroke-width="0.75" stroke-linecap="round" stroke-linejoin="round"></path>
    <path d="M58.25 48.73H51.88" stroke="currentcolor" stroke-width="0.75" stroke-linecap="round" stroke-linejoin="round"></path>
    <path d="M74.41 39.3999L69.91 43.9099" stroke="currentcolor" stroke-width="0.75" stroke-linecap="round" stroke-linejoin="round"></path>
    <path d="M60.25 53.5598L55.7401 58.0698" stroke="currentcolor" stroke-width="0.75" stroke-linecap="round" stroke-linejoin="round"></path>
    <path d="M74.41 58.0698L69.91 53.5598" stroke="currentcolor" stroke-width="0.75" stroke-linecap="round" stroke-linejoin="round"></path>
    <path d="M60.25 43.9099L55.7401 39.3999" stroke="currentcolor" stroke-width="0.75" stroke-linecap="round" stroke-linejoin="round"></path>
    <path d="M67.6 42.3899L69.08 38.6799" stroke="currentcolor" stroke-width="0.75" stroke-linecap="round" stroke-linejoin="round"></path>
    <path d="M61.08 58.7898L62.56 55.0798" stroke="currentcolor" stroke-width="0.75" stroke-linecap="round" stroke-linejoin="round"></path>
    <path d="M71.42 51.2598L75.13 52.7298" stroke="currentcolor" stroke-width="0.75" stroke-linecap="round" stroke-linejoin="round"></path>
    <path d="M55.02 44.7397L58.73 46.2097" stroke="currentcolor" stroke-width="0.75" stroke-linecap="round" stroke-linejoin="round"></path>
    <path d="M71.35 46.03L75.02 44.45" stroke="currentcolor" stroke-width="0.75" stroke-linecap="round" stroke-linejoin="round"></path>
    <path d="M55.14 53.0199L58.81 51.4399" stroke="currentcolor" stroke-width="0.75" stroke-linecap="round" stroke-linejoin="round"></path>
    <path d="M67.78 54.9998L69.36 58.6698" stroke="currentcolor" stroke-width="0.75" stroke-linecap="round" stroke-linejoin="round"></path>
    <path d="M60.79 38.7998L62.38 42.4598" stroke="currentcolor" stroke-width="0.75" stroke-linecap="round" stroke-linejoin="round"></path>
    <path d="M49.7 54.1499L31.35 80.4099L44 89.8799" stroke="currentcolor" stroke-width="0.75" stroke-linecap="round" stroke-linejoin="round"></path>
    <path d="M49.7 54.1499L68.05 80.4099L55.4 89.8799" stroke="currentcolor" stroke-width="0.75" stroke-linecap="round" stroke-linejoin="round"></path>
    <path d="M30.85 72.7498C29.9423 73.4826 29.1932 74.3924 28.6482 75.4239C28.1032 76.4554 27.7738 77.5869 27.68 78.7498C27.5862 77.5869 27.2568 76.4554 26.7118 75.4239C26.1669 74.3924 25.4177 73.4826 24.51 72.7498C25.4186 72.0177 26.1683 71.1081 26.7134 70.0765C27.2584 69.0448 27.5874 67.9128 27.68 66.7498C27.7727 67.9128 28.1016 69.0448 28.6466 70.0765C29.1917 71.1081 29.9414 72.0177 30.85 72.7498Z" stroke="currentcolor" stroke-width="0.75" stroke-linecap="round" stroke-linejoin="round"></path>
    <path d="M73.13 72.7498C72.2246 73.4839 71.4777 74.3942 70.9345 75.4256C70.3913 76.4569 70.0632 77.5878 69.97 78.7498C69.8762 77.5869 69.5468 76.4554 69.0019 75.4239C68.4569 74.3924 67.7078 73.4826 66.8 72.7498C67.7086 72.0177 68.4584 71.1081 69.0034 70.0765C69.5485 69.0448 69.8774 67.9128 69.97 66.7498C70.0626 67.9118 70.3905 69.0429 70.9337 70.0744C71.4769 71.1058 72.2242 72.016 73.13 72.7498Z" stroke="currentcolor" stroke-width="0.75" stroke-linecap="round" stroke-linejoin="round"></path>
    <path d="M42.44 18.0899C41.0088 16.6515 40.0358 14.8215 39.6436 12.8307C39.2515 10.84 39.4579 8.77761 40.2367 6.90399C41.0155 5.03036 42.3318 3.42942 44.0196 2.30319C45.7074 1.17697 47.691 0.575928 49.72 0.575928C51.7491 0.575928 53.7326 1.17697 55.4204 2.30319C57.1082 3.42942 58.4246 5.03036 59.2034 6.90399C59.9822 8.77761 60.1885 10.84 59.7964 12.8307C59.4043 14.8215 58.4312 16.6515 57 18.0899" stroke="currentcolor" stroke-width="0.75" stroke-linecap="round" stroke-linejoin="round"></path>
  </g>
  <defs>
    <clipPath id="clip0_1_3212">
      <rect width="99.4" height="98.51" fill="currentcolor" transform="translate(0 0.189941)"></rect>
    </clipPath>
  </defs>
</svg>
