<?xml version="1.0" encoding="UTF-8"?>
<svg preserveAspectRatio="xMidYMid slice" xmlns="http://www.w3.org/2000/svg" width="90px" height="120px" viewBox="0 0 81 108" fill="none">
  <g clip-path="url(#clip0_1_3108)">
    <path d="M40.25 68.9997C40.25 68.9997 34.51 69.6997 32.25 65.4797C32.25 65.4797 26.79 70.4797 26.71 74.4797C26.63 78.4797 32.59 82.0297 32.59 82.0297L40.2 79.1797V75.6097C40.2 75.6097 32.31 68.2197 32.2 65.4797C32.09 62.7397 40.2 53.7197 40.2 53.7197" stroke="currentcolor" stroke-width="0.75" stroke-linecap="round" stroke-linejoin="round"></path>
    <path d="M40.25 88.8198L33.51 86.0798L32.64 82.0398" stroke="currentcolor" stroke-width="0.75" stroke-linecap="round" stroke-linejoin="round"></path>
    <path d="M28.45 55.4999C29.5104 55.4999 30.37 54.6403 30.37 53.5799C30.37 52.5195 29.5104 51.6599 28.45 51.6599C27.3896 51.6599 26.53 52.5195 26.53 53.5799C26.53 54.6403 27.3896 55.4999 28.45 55.4999Z" stroke="currentcolor" stroke-width="0.75" stroke-linecap="round" stroke-linejoin="round"></path>
    <path d="M40.25 29.1299L38.25 26.4499C37.5754 25.5696 36.5958 24.9737 35.5039 24.7794C34.412 24.5851 33.2869 24.8064 32.35 25.3999" stroke="currentcolor" stroke-width="0.75" stroke-linecap="round" stroke-linejoin="round"></path>
    <path d="M37.25 32.2297L32.83 26.4497C32.154 25.5714 31.1745 24.9769 30.0832 24.7827C28.992 24.5885 27.8676 24.8085 26.93 25.3997L21.82 28.6197" stroke="currentcolor" stroke-width="0.75" stroke-linecap="round" stroke-linejoin="round"></path>
    <path d="M31.5 38.2799C31.5 38.2799 25.94 25.6399 16.67 29.1299C16.67 29.1299 11.46 35.4699 14.46 43.2299" stroke="currentcolor" stroke-width="0.75" stroke-linecap="round" stroke-linejoin="round"></path>
    <path d="M19.02 32.2299C19.02 32.2299 23.38 31.5399 26.11 36.3699" stroke="currentcolor" stroke-width="0.75" stroke-linecap="round" stroke-linejoin="round"></path>
    <path d="M13.94 44.9198C14.4161 43.0101 15.3999 41.2648 16.7871 39.8688C18.1744 38.4727 19.9134 37.4779 21.82 36.9898C28.69 34.9198 32.03 38.7598 32.03 38.7598L22.6 48.1498C35.49 48.1598 33.87 61.9198 33.87 61.9198" stroke="currentcolor" stroke-width="0.75" stroke-linecap="round" stroke-linejoin="round"></path>
    <path d="M23.42 84.8098C23.42 84.8098 21.22 95.9198 28.05 100.4C31.9667 102.985 36.0413 105.323 40.25 107.4" stroke="currentcolor" stroke-width="0.75" stroke-linecap="round" stroke-linejoin="round"></path>
    <path d="M18.94 75.9998C18.94 75.9998 10.31 93.0998 26.14 98.6898" stroke="currentcolor" stroke-width="0.75" stroke-linecap="round" stroke-linejoin="round"></path>
    <path d="M15.29 67.4897C15.29 67.4897 3.95004 77.9198 17.23 90.3298" stroke="currentcolor" stroke-width="0.75" stroke-linecap="round" stroke-linejoin="round"></path>
    <path d="M14.84 58.5298C14.84 58.5298 3.83999 65.1598 10.78 78.3898" stroke="currentcolor" stroke-width="0.75" stroke-linecap="round" stroke-linejoin="round"></path>
    <path d="M22.6 48.1599C22.6 48.1599 7.67001 50.0299 8.88001 66.7899" stroke="currentcolor" stroke-width="0.75" stroke-linecap="round" stroke-linejoin="round"></path>
    <path d="M17.04 43.9199C17.04 43.9199 7.87 45.0999 10.04 57.9199" stroke="currentcolor" stroke-width="0.75" stroke-linecap="round" stroke-linejoin="round"></path>
    <path d="M9.91002 51.6599L0.52002 68.4599L13.94 86.6699" stroke="currentcolor" stroke-width="0.75" stroke-linecap="round" stroke-linejoin="round"></path>
    <path d="M40.25 68.9997C40.25 68.9997 45.99 69.6997 48.25 65.4797C48.25 65.4797 53.71 70.4797 53.79 74.4797C53.87 78.4797 47.91 82.0297 47.91 82.0297L40.3 79.1797V75.6097C40.3 75.6097 48.19 68.2197 48.3 65.4797C48.41 62.7397 40.3 53.7197 40.3 53.7197" stroke="currentcolor" stroke-width="0.75" stroke-linecap="round" stroke-linejoin="round"></path>
    <path d="M40.25 88.8198L47 86.0798L47.86 82.0398" stroke="currentcolor" stroke-width="0.75" stroke-linecap="round" stroke-linejoin="round"></path>
    <path d="M52.05 55.4999C53.1104 55.4999 53.97 54.6403 53.97 53.5799C53.97 52.5195 53.1104 51.6599 52.05 51.6599C50.9896 51.6599 50.13 52.5195 50.13 53.5799C50.13 54.6403 50.9896 55.4999 52.05 55.4999Z" stroke="currentcolor" stroke-width="0.75" stroke-linecap="round" stroke-linejoin="round"></path>
    <path d="M40.25 29.1299L42.25 26.4499C42.9246 25.5696 43.9043 24.9737 44.9961 24.7794C46.088 24.5851 47.2131 24.8064 48.15 25.3999" stroke="currentcolor" stroke-width="0.75" stroke-linecap="round" stroke-linejoin="round"></path>
    <path d="M43.25 32.2297L47.67 26.4497C48.346 25.5714 49.3255 24.9769 50.4168 24.7827C51.508 24.5885 52.6324 24.8085 53.57 25.3997L58.68 28.6197" stroke="currentcolor" stroke-width="0.75" stroke-linecap="round" stroke-linejoin="round"></path>
    <path d="M49 38.2799C49 38.2799 54.56 25.6399 63.83 29.1299C63.83 29.1299 69.04 35.4699 66.04 43.2299" stroke="currentcolor" stroke-width="0.75" stroke-linecap="round" stroke-linejoin="round"></path>
    <path d="M61.48 32.2299C61.48 32.2299 57.12 31.5399 54.39 36.3699" stroke="currentcolor" stroke-width="0.75" stroke-linecap="round" stroke-linejoin="round"></path>
    <path d="M66.56 44.9198C66.0839 43.0102 65.1002 41.2649 63.7129 39.8688C62.3257 38.4728 60.5866 37.478 58.68 36.9898C51.81 34.9198 48.47 38.7698 48.47 38.7698L57.9 48.1598C45.01 48.1598 46.64 61.9198 46.64 61.9198" stroke="currentcolor" stroke-width="0.75" stroke-linecap="round" stroke-linejoin="round"></path>
    <path d="M57.08 84.8098C57.08 84.8098 59.28 95.9198 52.45 100.4C48.5333 102.985 44.4587 105.323 40.25 107.4" stroke="currentcolor" stroke-width="0.75" stroke-linecap="round" stroke-linejoin="round"></path>
    <path d="M61.56 75.9998C61.56 75.9998 70.19 93.0998 54.4 98.6898" stroke="currentcolor" stroke-width="0.75" stroke-linecap="round" stroke-linejoin="round"></path>
    <path d="M65.22 67.4897C65.22 67.4897 76.55 77.9198 63.27 90.3298" stroke="currentcolor" stroke-width="0.75" stroke-linecap="round" stroke-linejoin="round"></path>
    <path d="M65.66 58.5298C65.66 58.5298 76.66 65.1598 69.72 78.3898" stroke="currentcolor" stroke-width="0.75" stroke-linecap="round" stroke-linejoin="round"></path>
    <path d="M57.9 48.1599C57.9 48.1599 72.83 50.0299 71.62 66.7899" stroke="currentcolor" stroke-width="0.75" stroke-linecap="round" stroke-linejoin="round"></path>
    <path d="M63.46 43.9199C63.46 43.9199 72.63 45.0999 70.46 57.9199" stroke="currentcolor" stroke-width="0.75" stroke-linecap="round" stroke-linejoin="round"></path>
    <path d="M70.59 51.6599L79.99 68.4599L66.56 86.6699" stroke="currentcolor" stroke-width="0.75" stroke-linecap="round" stroke-linejoin="round"></path>
    <path d="M40.2 18.7198C43.083 18.7198 45.42 16.3827 45.42 13.4998C45.42 10.6169 43.083 8.27979 40.2 8.27979C37.3171 8.27979 34.98 10.6169 34.98 13.4998C34.98 16.3827 37.3171 18.7198 40.2 18.7198Z" stroke="currentcolor" stroke-width="0.75" stroke-linecap="round" stroke-linejoin="round"></path>
    <path d="M40.2 1.2998V7.1898" stroke="currentcolor" stroke-width="0.75" stroke-linecap="round" stroke-linejoin="round"></path>
    <path d="M40.2 19.8098V25.6998" stroke="currentcolor" stroke-width="0.75" stroke-linecap="round" stroke-linejoin="round"></path>
    <path d="M52.41 13.4998H46.52" stroke="currentcolor" stroke-width="0.75" stroke-linecap="round" stroke-linejoin="round"></path>
    <path d="M33.89 13.4998H28" stroke="currentcolor" stroke-width="0.75" stroke-linecap="round" stroke-linejoin="round"></path>
    <path d="M48.83 4.86987L44.67 9.02987" stroke="currentcolor" stroke-width="0.75" stroke-linecap="round" stroke-linejoin="round"></path>
    <path d="M35.74 17.9597L31.57 22.1297" stroke="currentcolor" stroke-width="0.75" stroke-linecap="round" stroke-linejoin="round"></path>
    <path d="M48.83 22.1297L44.67 17.9597" stroke="currentcolor" stroke-width="0.75" stroke-linecap="round" stroke-linejoin="round"></path>
    <path d="M35.74 9.02987L31.57 4.86987" stroke="currentcolor" stroke-width="0.75" stroke-linecap="round" stroke-linejoin="round"></path>
    <path d="M42.54 7.62971L43.9 4.19971" stroke="currentcolor" stroke-width="0.75" stroke-linecap="round" stroke-linejoin="round"></path>
    <path d="M36.51 22.7999L37.87 19.3599" stroke="currentcolor" stroke-width="0.75" stroke-linecap="round" stroke-linejoin="round"></path>
    <path d="M46.07 15.8298L49.5 17.1898" stroke="currentcolor" stroke-width="0.75" stroke-linecap="round" stroke-linejoin="round"></path>
    <path d="M30.91 9.7998L34.34 11.1698" stroke="currentcolor" stroke-width="0.75" stroke-linecap="round" stroke-linejoin="round"></path>
    <path d="M46 10.9998L49.39 9.53979" stroke="currentcolor" stroke-width="0.75" stroke-linecap="round" stroke-linejoin="round"></path>
    <path d="M31.01 17.4598L34.41 15.9998" stroke="currentcolor" stroke-width="0.75" stroke-linecap="round" stroke-linejoin="round"></path>
    <path d="M42.7 19.2998L44.16 22.6898" stroke="currentcolor" stroke-width="0.75" stroke-linecap="round" stroke-linejoin="round"></path>
    <path d="M36.24 4.30981L37.7 7.69981" stroke="currentcolor" stroke-width="0.75" stroke-linecap="round" stroke-linejoin="round"></path>
    <path d="M40.25 49.4098C42.7739 49.4098 44.82 47.3637 44.82 44.8398C44.82 42.3158 42.7739 40.2698 40.25 40.2698C37.7261 40.2698 35.68 42.3158 35.68 44.8398C35.68 47.3637 37.7261 49.4098 40.25 49.4098Z" stroke="currentcolor" stroke-width="0.75" stroke-linecap="round" stroke-linejoin="round"></path>
    <path d="M11.26 43.2297C10.4239 43.9084 9.73342 44.7489 9.22995 45.7009C8.72648 46.6528 8.42039 47.6966 8.33002 48.7697C8.24364 47.6957 7.93928 46.6505 7.43552 45.698C6.93176 44.7455 6.23917 43.9056 5.40002 43.2297C6.23931 42.5561 6.93213 41.7181 7.43597 40.7672C7.93981 39.8163 8.24405 38.7724 8.33002 37.6997C8.4217 38.7711 8.72841 39.813 9.23184 40.7631C9.73526 41.7133 10.4251 42.5522 11.26 43.2297Z" stroke="currentcolor" stroke-width="0.75" stroke-linecap="round" stroke-linejoin="round"></path>
    <path d="M75 43.2297C74.1639 43.9084 73.4734 44.7489 72.9699 45.7009C72.4665 46.6528 72.1604 47.6966 72.07 48.7697C71.9836 47.6957 71.6793 46.6505 71.1755 45.698C70.6718 44.7455 69.9792 43.9056 69.14 43.2297C69.9793 42.5561 70.6721 41.7181 71.176 40.7672C71.6798 39.8163 71.984 38.7724 72.07 37.6997C72.1617 38.7711 72.4684 39.813 72.9718 40.7631C73.4752 41.7133 74.1651 42.5522 75 43.2297Z" stroke="currentcolor" stroke-width="0.75" stroke-linecap="round" stroke-linejoin="round"></path>
  </g>
  <defs>
    <clipPath id="clip0_1_3108">
      <rect width="80.22" height="106.88" fill="currentcolor" transform="translate(0.140015 0.919922)"></rect>
    </clipPath>
  </defs>
</svg>
