<?xml version="1.0" encoding="UTF-8"?>
<svg preserveAspectRatio="xMidYMid slice" xmlns="http://www.w3.org/2000/svg" width="126px" height="240px" viewBox="0 0 59 112" fill="none">
  <g clip-path="url(#clip0_1_3293)">
    <path d="M29.51 55.32H23.67L22.36 52.76" stroke="currentcolor" stroke-width="0.75" stroke-linecap="round" stroke-linejoin="round"></path>
    <path d="M22.61 48.0801L22.23 49.2401" stroke="currentcolor" stroke-width="0.75" stroke-linecap="round" stroke-linejoin="round"></path>
    <path d="M23.75 44.58L24.66 41.79L29.51 40.01" stroke="currentcolor" stroke-width="0.75" stroke-linecap="round" stroke-linejoin="round"></path>
    <path d="M23.82 44.35C23.82 44.35 18.97 40.43 23.82 36.48L27.82 40.64" stroke="currentcolor" stroke-width="0.75" stroke-linecap="round" stroke-linejoin="round"></path>
    <path d="M23.82 36.48H15.27C15.27 36.48 13.62 41.61 21.9 41.61" stroke="currentcolor" stroke-width="0.75" stroke-linecap="round" stroke-linejoin="round"></path>
    <path d="M15.27 36.48L9.71002 28.73C9.71002 28.73 4.22002 29.85 7.87002 35.84C11.52 41.83 16.19 40.01 16.19 40.01" stroke="currentcolor" stroke-width="0.75" stroke-linecap="round" stroke-linejoin="round"></path>
    <path d="M6.62003 31.74C5.3489 30.4867 4.41829 28.93 3.91611 27.217C3.41393 25.504 3.35677 23.6913 3.75003 21.95C4.11602 20.7127 4.60862 19.5163 5.22003 18.38L6.74003 15.31C7.27003 14.24 7.80003 13.19 8.40003 12.13C10.7032 8.14422 13.9262 4.76697 17.8 2.28003C14.6521 5.15769 12.3493 8.84003 11.14 12.93C10.7935 13.8629 10.7105 14.8731 10.9 15.85C11.28 17.21 12.53 18.12 13.34 19.28C13.9081 20.0957 14.2672 21.0383 14.3858 22.0252C14.5044 23.0121 14.3788 24.013 14.02 24.94C13.6649 25.8734 13.0878 26.7063 12.3386 27.3666C11.5894 28.0269 10.6906 28.4949 9.72003 28.73" stroke="currentcolor" stroke-width="0.75" stroke-linecap="round" stroke-linejoin="round"></path>
    <path d="M20.6301 64.8401C20.4943 69.0908 20.7117 73.3454 21.2801 77.5601C21.2801 77.5601 23.3301 92.3301 29.5101 92.3301" stroke="currentcolor" stroke-width="0.75" stroke-linecap="round" stroke-linejoin="round"></path>
    <path d="M21.5801 59.3801C21.4201 59.9201 21.2701 60.5401 21.1201 61.2401" stroke="currentcolor" stroke-width="0.75" stroke-linecap="round" stroke-linejoin="round"></path>
    <path d="M23.67 55.3201C23.3947 55.4856 23.1672 55.7199 23.01 56.0001" stroke="currentcolor" stroke-width="0.75" stroke-linecap="round" stroke-linejoin="round"></path>
    <path d="M21.67 59.4102H29.51" stroke="currentcolor" stroke-width="0.75" stroke-linecap="round" stroke-linejoin="round"></path>
    <path d="M20.5601 66.78H29.5101" stroke="currentcolor" stroke-width="0.75" stroke-linecap="round" stroke-linejoin="round"></path>
    <path d="M20.9 74.1501H29.51" stroke="currentcolor" stroke-width="0.75" stroke-linecap="round" stroke-linejoin="round"></path>
    <path d="M22.07 81.52H29.51" stroke="currentcolor" stroke-width="0.75" stroke-linecap="round" stroke-linejoin="round"></path>
    <path d="M24.88 88.8901H29.51" stroke="currentcolor" stroke-width="0.75" stroke-linecap="round" stroke-linejoin="round"></path>
    <path d="M20.4 61.1101C20.6425 61.1117 20.8827 61.1557 21.11 61.2401C21.11 61.3601 21.05 61.4901 21.02 61.6101C20.8111 62.6761 20.6775 63.7554 20.62 64.8401H20.4C19.9041 64.8401 19.4284 64.6431 19.0777 64.2924C18.727 63.9417 18.53 63.4661 18.53 62.9701C18.53 62.4741 18.727 61.9985 19.0777 61.6478C19.4284 61.2971 19.9041 61.1001 20.4 61.1001V61.1101Z" stroke="currentcolor" stroke-width="0.75" stroke-linecap="round" stroke-linejoin="round"></path>
    <path d="M21.95 55.6701C22.329 55.6677 22.6994 55.783 23.01 56.0001C22.3648 57.0478 21.8827 58.1875 21.58 59.3801C21.117 59.2967 20.7024 59.0418 20.4189 58.6663C20.1355 58.2908 20.004 57.8223 20.0507 57.3541C20.0974 56.8859 20.3188 56.4526 20.6709 56.1405C21.0229 55.8283 21.4796 55.6604 21.95 55.6701Z" stroke="currentcolor" stroke-width="0.75" stroke-linecap="round" stroke-linejoin="round"></path>
    <path d="M19.79 51.0201C19.8031 50.5302 20.0069 50.0648 20.358 49.7229C20.7092 49.3811 21.18 49.1899 21.67 49.1901C21.8614 49.1874 22.0515 49.2213 22.23 49.2901L21.58 51.2901L22.4 52.7601C22.1799 52.8452 21.9461 52.8893 21.71 52.8901C21.4603 52.8968 21.2117 52.8533 20.9791 52.7624C20.7464 52.6714 20.5343 52.5347 20.3553 52.3604C20.1763 52.1861 20.0341 51.9776 19.937 51.7474C19.8399 51.5172 19.7899 51.2699 19.79 51.0201Z" stroke="currentcolor" stroke-width="0.75" stroke-linecap="round" stroke-linejoin="round"></path>
    <path d="M20.98 46.1901C20.98 45.6915 21.1781 45.2133 21.5307 44.8607C21.8832 44.5082 22.3614 44.3101 22.86 44.3101C23.1717 44.308 23.4785 44.3873 23.75 44.5401L22.61 48.0401C22.1602 47.9819 21.7468 47.7621 21.447 47.4218C21.1471 47.0814 20.9811 46.6437 20.98 46.1901Z" stroke="currentcolor" stroke-width="0.75" stroke-linecap="round" stroke-linejoin="round"></path>
    <path d="M21.78 44.7L14.92 47.49C14.92 47.49 16.36 50.49 21.67 47.67" stroke="currentcolor" stroke-width="0.75" stroke-linecap="round" stroke-linejoin="round"></path>
    <path d="M14.92 47.49L12.26 43.06C12.26 43.06 14.1 42.26 17.26 46.55" stroke="currentcolor" stroke-width="0.75" stroke-linecap="round" stroke-linejoin="round"></path>
    <path d="M12.26 43.0601L7.14001 46.1901C7.14001 46.1901 7.71001 47.5801 13.31 44.7801" stroke="currentcolor" stroke-width="0.75" stroke-linecap="round" stroke-linejoin="round"></path>
    <path d="M20.2501 49.8L8.56006 54.66C8.56006 54.66 9.56006 57.52 15.3001 54.84L20.4001 52.42" stroke="currentcolor" stroke-width="0.75" stroke-linecap="round" stroke-linejoin="round"></path>
    <path d="M8.56001 54.6601L5.89001 50.1901C5.89001 50.1901 7.73001 49.3901 10.89 53.6801" stroke="currentcolor" stroke-width="0.75" stroke-linecap="round" stroke-linejoin="round"></path>
    <path d="M5.89003 50.1899L0.780029 53.3899C0.780029 53.3899 1.34003 54.7799 6.95003 51.9799" stroke="currentcolor" stroke-width="0.75" stroke-linecap="round" stroke-linejoin="round"></path>
    <path d="M20.52 56.3201L8.83002 61.1901C8.83002 61.1901 9.83002 64.0501 15.58 61.3701L20.7 58.9501" stroke="currentcolor" stroke-width="0.75" stroke-linecap="round" stroke-linejoin="round"></path>
    <path d="M8.83004 61.19L6.17004 56.75C6.17004 56.75 8.01004 55.9499 11.17 60.2399" stroke="currentcolor" stroke-width="0.75" stroke-linecap="round" stroke-linejoin="round"></path>
    <path d="M6.17005 56.75L1.05005 59.91C1.05005 59.91 1.62005 61.3 7.22005 58.5" stroke="currentcolor" stroke-width="0.75" stroke-linecap="round" stroke-linejoin="round"></path>
    <path d="M18.58 62.51L11.05 72.69C11.05 72.69 13.39 74.62 16.93 69.38L19.93 64.84" stroke="currentcolor" stroke-width="0.75" stroke-linecap="round" stroke-linejoin="round"></path>
    <path d="M11.05 72.6902L6.48004 70.2502C6.48004 70.2502 7.65004 68.6202 12.55 70.6902" stroke="currentcolor" stroke-width="0.75" stroke-linecap="round" stroke-linejoin="round"></path>
    <path d="M6.48004 70.25L1.48004 79.98C4.02978 77.2778 6.31053 74.334 8.29004 71.19" stroke="currentcolor" stroke-width="0.75" stroke-linecap="round" stroke-linejoin="round"></path>
    <path d="M36.75 52.76L35.44 55.32H29.6" stroke="currentcolor" stroke-width="0.75" stroke-linecap="round" stroke-linejoin="round"></path>
    <path d="M36.88 49.2401L36.5 48.0801" stroke="currentcolor" stroke-width="0.75" stroke-linecap="round" stroke-linejoin="round"></path>
    <path d="M29.6 40.01L34.45 41.79L35.36 44.58" stroke="currentcolor" stroke-width="0.75" stroke-linecap="round" stroke-linejoin="round"></path>
    <path d="M35.29 44.35C35.29 44.35 40.14 40.43 35.29 36.48L31.29 40.64" stroke="currentcolor" stroke-width="0.75" stroke-linecap="round" stroke-linejoin="round"></path>
    <path d="M35.29 36.48H43.84C43.84 36.48 45.49 41.61 37.22 41.61" stroke="currentcolor" stroke-width="0.75" stroke-linecap="round" stroke-linejoin="round"></path>
    <path d="M43.84 36.48L49.4 28.73C49.4 28.73 54.89 29.85 51.24 35.84C47.59 41.83 42.92 40.01 42.92 40.01" stroke="currentcolor" stroke-width="0.75" stroke-linecap="round" stroke-linejoin="round"></path>
    <path d="M52.49 31.74C53.7658 30.4891 54.7023 28.9341 55.2114 27.2215C55.7205 25.5088 55.7854 23.6947 55.4 21.95C55.0263 20.7139 54.5305 19.518 53.92 18.38L52.4 15.31C51.87 14.24 51.34 13.17 50.75 12.13C48.45 8.14188 45.2264 4.76396 41.35 2.28003C44.5009 5.15711 46.807 8.83933 48.02 12.93C48.3587 13.8648 48.4382 14.8738 48.25 15.85C47.87 17.21 46.62 18.12 45.81 19.28C45.2419 20.0957 44.8828 21.0383 44.7643 22.0252C44.6457 23.0121 44.7713 24.013 45.13 24.94C45.4824 25.8699 46.0549 26.7005 46.7986 27.3606C47.5423 28.0206 48.4349 28.4906 49.4 28.73" stroke="currentcolor" stroke-width="0.75" stroke-linecap="round" stroke-linejoin="round"></path>
    <path d="M29.6 92.3301C35.79 92.3301 37.83 77.5601 37.83 77.5601C38.3984 73.3454 38.6158 69.0908 38.48 64.8401" stroke="currentcolor" stroke-width="0.75" stroke-linecap="round" stroke-linejoin="round"></path>
    <path d="M37.99 61.2401C37.84 60.5401 37.69 59.9201 37.53 59.3801" stroke="currentcolor" stroke-width="0.75" stroke-linecap="round" stroke-linejoin="round"></path>
    <path d="M36.1 56.0001C35.9428 55.7199 35.7153 55.4856 35.44 55.3201" stroke="currentcolor" stroke-width="0.75" stroke-linecap="round" stroke-linejoin="round"></path>
    <path d="M37.44 59.4102H29.6" stroke="currentcolor" stroke-width="0.75" stroke-linecap="round" stroke-linejoin="round"></path>
    <path d="M38.55 66.78H29.6" stroke="currentcolor" stroke-width="0.75" stroke-linecap="round" stroke-linejoin="round"></path>
    <path d="M38.21 74.1501H29.6" stroke="currentcolor" stroke-width="0.75" stroke-linecap="round" stroke-linejoin="round"></path>
    <path d="M37.04 81.52H29.6" stroke="currentcolor" stroke-width="0.75" stroke-linecap="round" stroke-linejoin="round"></path>
    <path d="M34.23 88.8901H29.6" stroke="currentcolor" stroke-width="0.75" stroke-linecap="round" stroke-linejoin="round"></path>
    <path d="M38.7001 61.1101C38.4576 61.1117 38.2173 61.1557 37.9901 61.2401C37.9901 61.3601 38.0501 61.4901 38.0801 61.6101C38.2889 62.6761 38.4226 63.7554 38.4801 64.8401H38.7001C39.196 64.8401 39.6716 64.6431 40.0223 64.2924C40.373 63.9417 40.57 63.4661 40.57 62.9701C40.57 62.4741 40.373 61.9985 40.0223 61.6478C39.6716 61.2971 39.196 61.1001 38.7001 61.1001V61.1101Z" stroke="currentcolor" stroke-width="0.75" stroke-linecap="round" stroke-linejoin="round"></path>
    <path d="M37.16 55.6701C36.7811 55.6677 36.4107 55.783 36.1 56.0001C36.7496 57.0455 37.2321 58.1859 37.53 59.3801C37.9931 59.2967 38.4077 59.0418 38.6911 58.6663C38.9746 58.2908 39.1061 57.8223 39.0594 57.3541C39.0127 56.8859 38.7913 56.4526 38.4392 56.1405C38.0872 55.8283 37.6304 55.6604 37.16 55.6701Z" stroke="currentcolor" stroke-width="0.75" stroke-linecap="round" stroke-linejoin="round"></path>
    <path d="M39.32 51.0201C39.3069 50.5232 39.0976 50.0518 38.7378 49.7088C38.3779 49.3659 37.897 49.1794 37.4 49.1901C37.2087 49.1874 37.0186 49.2214 36.84 49.2901L37.49 51.2901L36.71 52.8101C36.9301 52.8953 37.164 52.9394 37.4 52.9401C37.654 52.947 37.9068 52.9021 38.1428 52.808C38.3789 52.714 38.5933 52.5728 38.773 52.3931C38.9527 52.2134 39.0939 51.999 39.1879 51.763C39.282 51.5269 39.3269 51.2742 39.32 51.0201Z" stroke="currentcolor" stroke-width="0.75" stroke-linecap="round" stroke-linejoin="round"></path>
    <path d="M38.13 46.1901C38.13 45.6915 37.932 45.2133 37.5794 44.8607C37.2268 44.5082 36.7487 44.3101 36.25 44.3101C35.9384 44.308 35.6316 44.3873 35.36 44.5401L36.5 48.0401C36.9499 47.9819 37.3633 47.7621 37.6631 47.4218C37.963 47.0814 38.1289 46.6437 38.13 46.1901Z" stroke="currentcolor" stroke-width="0.75" stroke-linecap="round" stroke-linejoin="round"></path>
    <path d="M37.33 44.7L44.19 47.49C44.19 47.49 42.75 50.49 37.44 47.67" stroke="currentcolor" stroke-width="0.75" stroke-linecap="round" stroke-linejoin="round"></path>
    <path d="M44.19 47.49L46.85 43.06C46.85 43.06 45.02 42.26 41.85 46.55" stroke="currentcolor" stroke-width="0.75" stroke-linecap="round" stroke-linejoin="round"></path>
    <path d="M46.85 43.0601L51.97 46.1901C51.97 46.1901 51.4 47.6101 45.8 44.8101" stroke="currentcolor" stroke-width="0.75" stroke-linecap="round" stroke-linejoin="round"></path>
    <path d="M38.87 49.8L50.55 54.66C50.55 54.66 49.55 57.52 43.81 54.84L38.69 52.42" stroke="currentcolor" stroke-width="0.75" stroke-linecap="round" stroke-linejoin="round"></path>
    <path d="M50.55 54.6601L53.22 50.1901C53.22 50.1901 51.38 49.3901 48.22 53.6801" stroke="currentcolor" stroke-width="0.75" stroke-linecap="round" stroke-linejoin="round"></path>
    <path d="M53.22 50.1899L58.34 53.3499C58.34 53.3499 57.77 54.7399 52.17 51.9399" stroke="currentcolor" stroke-width="0.75" stroke-linecap="round" stroke-linejoin="round"></path>
    <path d="M38.59 56.3201L50.28 61.1901C50.28 61.1901 49.28 64.0501 43.53 61.3701L38.4 58.9401" stroke="currentcolor" stroke-width="0.75" stroke-linecap="round" stroke-linejoin="round"></path>
    <path d="M50.28 61.19L52.94 56.76C52.94 56.76 51.1 55.96 47.94 60.25" stroke="currentcolor" stroke-width="0.75" stroke-linecap="round" stroke-linejoin="round"></path>
    <path d="M52.94 56.75L58.06 59.91C58.06 59.91 57.49 61.3 51.89 58.5" stroke="currentcolor" stroke-width="0.75" stroke-linecap="round" stroke-linejoin="round"></path>
    <path d="M40.5301 62.51L48.0601 72.69C48.0601 72.69 45.7201 74.62 42.1801 69.38L39.1801 64.84" stroke="currentcolor" stroke-width="0.75" stroke-linecap="round" stroke-linejoin="round"></path>
    <path d="M48.0601 72.6902L52.6301 70.2502C52.6301 70.2502 51.4601 68.6202 46.5601 70.6902" stroke="currentcolor" stroke-width="0.75" stroke-linecap="round" stroke-linejoin="round"></path>
    <path d="M52.63 70.25L57.63 79.98C55.0803 77.2778 52.7995 74.334 50.82 71.19" stroke="currentcolor" stroke-width="0.75" stroke-linecap="round" stroke-linejoin="round"></path>
    <path d="M32.73 90.9001C32.73 90.9001 33.3 96.3501 30.21 96.9801H28.77C25.82 96.1901 26.4 90.9001 26.4 90.9001" stroke="currentcolor" stroke-width="0.75" stroke-linecap="round" stroke-linejoin="round"></path>
    <path d="M29.03 55.14L25.25 46L23.34 51.27L24.49 53.74L25.93 52.42" stroke="currentcolor" stroke-width="0.75" stroke-linecap="round" stroke-linejoin="round"></path>
    <path d="M26.35 44.35C26.9189 44.35 27.38 43.8889 27.38 43.32C27.38 42.7512 26.9189 42.29 26.35 42.29C25.7812 42.29 25.32 42.7512 25.32 43.32C25.32 43.8889 25.7812 44.35 26.35 44.35Z" stroke="currentcolor" stroke-width="0.75" stroke-linecap="round" stroke-linejoin="round"></path>
    <path d="M30.16 55.3202L33.93 46.1802L35.85 51.4502L34.7 53.9202L33.25 52.6002" stroke="currentcolor" stroke-width="0.75" stroke-linecap="round" stroke-linejoin="round"></path>
    <path d="M32.8401 44.54C33.4089 44.54 33.8701 44.0788 33.8701 43.51C33.8701 42.9411 33.4089 42.48 32.8401 42.48C32.2712 42.48 31.8101 42.9411 31.8101 43.51C31.8101 44.0788 32.2712 44.54 32.8401 44.54Z" stroke="currentcolor" stroke-width="0.75" stroke-linecap="round" stroke-linejoin="round"></path>
    <path d="M29.5601 16.9302C32.3933 16.9302 34.6901 14.6334 34.6901 11.8002C34.6901 8.96694 32.3933 6.67017 29.5601 6.67017C26.7268 6.67017 24.4301 8.96694 24.4301 11.8002C24.4301 14.6334 26.7268 16.9302 29.5601 16.9302Z" stroke="currentcolor" stroke-width="0.75" stroke-linecap="round" stroke-linejoin="round"></path>
    <path d="M34.85 21.9901C34.8595 20.8637 34.5092 19.7636 33.85 18.8501C35.4384 19.7876 36.6744 21.2213 37.3679 22.9304C38.0614 24.6394 38.1738 26.5291 37.6879 28.3083C37.202 30.0875 36.1446 31.6577 34.6786 32.7769C33.2127 33.8962 31.4194 34.5025 29.575 34.5025C27.7307 34.5025 25.9374 33.8962 24.4714 32.7769C23.0055 31.6577 21.9481 30.0875 21.4622 28.3083C20.9762 26.5291 21.0887 24.6394 21.7822 22.9304C22.4756 21.2213 23.7117 19.7876 25.3 18.8501C24.8038 19.525 24.4747 20.3078 24.3395 21.1345C24.2043 21.9612 24.267 22.8081 24.5225 23.6059C24.7779 24.4036 25.2188 25.1295 25.809 25.7239C26.3992 26.3183 27.1218 26.7644 27.9177 27.0256C28.7136 27.2867 29.5601 27.3555 30.3877 27.2262C31.2154 27.097 32.0006 26.7734 32.679 26.2821C33.3574 25.7907 33.9096 25.1456 34.2905 24.3995C34.6714 23.6535 34.87 22.8277 34.87 21.9901H34.85Z" stroke="currentcolor" stroke-width="0.75" stroke-linecap="round" stroke-linejoin="round"></path>
    <path d="M29.56 4.00006C30.51 4.00006 31.28 3.22999 31.28 2.28006C31.28 1.33013 30.51 0.560059 29.56 0.560059C28.6101 0.560059 27.84 1.33013 27.84 2.28006C27.84 3.22999 28.6101 4.00006 29.56 4.00006Z" stroke="currentcolor" stroke-width="0.75" stroke-linecap="round" stroke-linejoin="round"></path>
    <path d="M53.22 93.1899C52.4935 93.848 51.6417 94.3528 50.7156 94.6741C49.7895 94.9954 48.808 95.1266 47.83 95.0599C46.3165 95.0632 44.8256 94.6922 43.49 93.9799C42.3225 93.3296 41.3616 92.3639 40.7171 91.1931C40.0727 90.0223 39.7707 88.6938 39.8459 87.3595C39.921 86.0252 40.3701 84.739 41.1419 83.6479C41.9136 82.5569 42.9769 81.7051 44.21 81.1899C43.8463 81.4927 43.5538 81.8719 43.3533 82.3005C43.1528 82.7292 43.0493 83.1967 43.05 83.6699C43.047 84.1461 43.1703 84.6145 43.4075 85.0274C43.6447 85.4402 43.9872 85.7828 44.4 86.0199C45.2925 86.4002 46.2951 86.4323 47.21 86.1099C48.1006 85.7652 49.0212 85.5041 49.96 85.3299C52.68 85.1199 54.54 86.3299 54.84 88.8899C54.9748 89.6859 54.8959 90.5034 54.6113 91.2589C54.3266 92.0144 53.8465 92.6808 53.22 93.1899Z" stroke="currentcolor" stroke-width="0.75" stroke-linecap="round" stroke-linejoin="round"></path>
    <path d="M27.01 95.42C26.8311 97.5232 27.1044 99.6402 27.8116 101.629C28.5188 103.618 29.6434 105.432 31.11 106.95C32.5452 108.336 34.2698 109.387 36.1598 110.027C38.0497 110.666 40.058 110.879 42.04 110.65C44.018 110.389 45.9162 109.704 47.6044 108.641C49.2925 107.577 50.7306 106.161 51.82 104.49C52.8841 102.803 53.5802 100.91 53.8628 98.935C54.1454 96.9603 54.0081 94.9481 53.46 93.03" stroke="currentcolor" stroke-width="0.75" stroke-linecap="round" stroke-linejoin="round"></path>
    <path d="M32.32 95.5C32.4899 97.5218 33.0683 99.4881 34.02 101.28C34.9865 103.071 36.4714 104.528 38.28 105.46C39.4106 105.989 40.6362 106.284 41.8835 106.329C43.1309 106.374 44.3745 106.167 45.54 105.72C47.876 104.805 49.823 103.108 51.05 100.92C52.2705 98.7355 52.8429 96.2483 52.7 93.75" stroke="currentcolor" stroke-width="0.75" stroke-linecap="round" stroke-linejoin="round"></path>
    <path d="M34.78 102.59L30.69 106.35" stroke="currentcolor" stroke-width="0.75" stroke-linecap="round" stroke-linejoin="round"></path>
    <path d="M41.0801 106.32L40.9901 110.44" stroke="currentcolor" stroke-width="0.75" stroke-linecap="round" stroke-linejoin="round"></path>
    <path d="M48.4901 104.47L49.4901 107" stroke="currentcolor" stroke-width="0.75" stroke-linecap="round" stroke-linejoin="round"></path>
    <path d="M9.54002 71.8801L5.89001 81.2301L27.91 101.89" stroke="currentcolor" stroke-width="0.75" stroke-linecap="round" stroke-linejoin="round"></path>
    <path d="M13.3101 62.22L10.3101 69.92" stroke="currentcolor" stroke-width="0.75" stroke-linecap="round" stroke-linejoin="round"></path>
    <path d="M41.4701 92.23L33.3701 99.83" stroke="currentcolor" stroke-width="0.75" stroke-linecap="round" stroke-linejoin="round"></path>
    <path d="M49.55 71.8801L53.2 81.2301L48.4 85.7301" stroke="currentcolor" stroke-width="0.75" stroke-linecap="round" stroke-linejoin="round"></path>
    <path d="M45.78 62.22L48.78 69.92" stroke="currentcolor" stroke-width="0.75" stroke-linecap="round" stroke-linejoin="round"></path>
    <path d="M22.34 12.8701C21.4341 13.6038 20.6869 14.5141 20.1437 15.5455C19.6004 16.5769 19.2726 17.7081 19.18 18.8701C19.0874 17.707 18.7584 16.5751 18.2134 15.5434C17.6683 14.5118 16.9186 13.6021 16.01 12.8701C16.9177 12.1373 17.6669 11.2275 18.2118 10.196C18.7568 9.16452 19.0862 8.03294 19.18 6.87012C19.2732 8.03204 19.6013 9.16296 20.1444 10.1943C20.6876 11.2257 21.4346 12.136 22.34 12.8701Z" stroke="currentcolor" stroke-width="0.75" stroke-linecap="round" stroke-linejoin="round"></path>
    <path d="M43.1 12.8701C42.1914 13.6021 41.4417 14.5118 40.8966 15.5434C40.3516 16.5751 40.0227 17.707 39.93 18.8701C39.8375 17.7081 39.5096 16.5769 38.9664 15.5455C38.4231 14.5141 37.6759 13.6038 36.77 12.8701C37.6755 12.136 38.4224 11.2257 38.9656 10.1943C39.5088 9.16296 39.8369 8.03204 39.93 6.87012C40.0238 8.03294 40.3532 9.16452 40.8982 10.196C41.4432 11.2275 42.1923 12.1373 43.1 12.8701Z" stroke="currentcolor" stroke-width="0.75" stroke-linecap="round" stroke-linejoin="round"></path>
  </g>
  <defs>
    <clipPath id="clip0_1_3293">
      <rect width="58.31" height="110.93" fill="currentcolor" transform="translate(0.400024 0.189941)"></rect>
    </clipPath>
  </defs>
</svg>
