<?xml version="1.0" encoding="UTF-8"?>
<svg preserveAspectRatio="xMidYMid slice" xmlns="http://www.w3.org/2000/svg" width="105px" height="120px" viewBox="0 0 88 100" fill="none">
  <g clip-path="url(#clip0_1_3161)">
    <path d="M44.02 98.8699H29.71V97.6099H44.02" stroke="currentcolor" stroke-width="0.75" stroke-linecap="round" stroke-linejoin="round"></path>
    <path d="M41.7 92.2498L30.77 97.6098" stroke="currentcolor" stroke-width="0.75" stroke-linecap="round" stroke-linejoin="round"></path>
    <path d="M44.02 92.2497H40.04V90.1997H44.02" stroke="currentcolor" stroke-width="0.75" stroke-linecap="round" stroke-linejoin="round"></path>
    <path d="M40.7 90.1998L42.7 63.6998C42.7 63.6998 44.46 59.3298 42.7 55.4898L40.7 52.7098V45.4898L39.25 43.5698C39.4198 43.0433 39.718 42.5673 40.1179 42.185C40.5177 41.8026 41.0065 41.5259 41.54 41.3798V35.9198C41.54 35.9198 38.91 34.7098 38.91 33.0898C38.91 31.4698 41.66 30.2998 41.66 30.2998H43.84" stroke="currentcolor" stroke-width="0.75" stroke-linecap="round" stroke-linejoin="round"></path>
    <path d="M41.54 41.3799H43.84" stroke="currentcolor" stroke-width="0.75" stroke-linecap="round" stroke-linejoin="round"></path>
    <path d="M41.54 35.8699H43.84" stroke="currentcolor" stroke-width="0.75" stroke-linecap="round" stroke-linejoin="round"></path>
    <path d="M40.7 52.7097H43.84" stroke="currentcolor" stroke-width="0.75" stroke-linecap="round" stroke-linejoin="round"></path>
    <path d="M42.69 63.6997H44.01" stroke="currentcolor" stroke-width="0.75" stroke-linecap="round" stroke-linejoin="round"></path>
    <path d="M42.69 55.4897H43.84" stroke="currentcolor" stroke-width="0.75" stroke-linecap="round" stroke-linejoin="round"></path>
    <path d="M41.66 30.2498H7.69L9.23 32.1398L39.7 34.5998" stroke="currentcolor" stroke-width="0.75" stroke-linecap="round" stroke-linejoin="round"></path>
    <path d="M12.71 35.5997C12.712 36.2809 12.5117 36.9474 12.1344 37.5146C11.7572 38.0818 11.22 38.5243 10.5911 38.7859C9.96208 39.0475 9.26958 39.1165 8.60136 38.9841C7.93313 38.8517 7.31927 38.5238 6.83757 38.0421C6.35588 37.5604 6.02805 36.9466 5.89563 36.2783C5.76322 35.6101 5.83218 34.9176 6.09379 34.2886C6.35539 33.6597 6.79785 33.1225 7.36509 32.7453C7.93232 32.368 8.59879 32.1677 9.28 32.1697" stroke="currentcolor" stroke-width="0.75" stroke-linecap="round" stroke-linejoin="round"></path>
    <path d="M48.42 19.4397C48.4243 18.4639 48.112 17.513 47.53 16.7297C48.9042 17.5393 49.9741 18.7782 50.5747 20.2557C51.1754 21.7332 51.2735 23.3673 50.854 24.906C50.4344 26.4448 49.5205 27.8029 48.2531 28.771C46.9856 29.7392 45.4349 30.2637 43.84 30.2637C42.2451 30.2637 40.6944 29.7392 39.427 28.771C38.1595 27.8029 37.2456 26.4448 36.826 24.906C36.4065 23.3673 36.5046 21.7332 37.1053 20.2557C37.7059 18.7782 38.7758 17.5393 40.15 16.7297C39.568 17.513 39.2557 18.4639 39.26 19.4397C39.26 20.6544 39.7425 21.8194 40.6015 22.6783C41.4604 23.5372 42.6253 24.0197 43.84 24.0197C45.0547 24.0197 46.2196 23.5372 47.0786 22.6783C47.9375 21.8194 48.42 20.6544 48.42 19.4397Z" stroke="currentcolor" stroke-width="0.75" stroke-linecap="round" stroke-linejoin="round"></path>
    <path d="M43.24 10.1498L40.17 7.9698L42.41 10.9898L35.62 11.6198L42.42 12.1698L40.24 15.2298L43.26 12.9998L43.89 21.8398L44.44 12.9798L47.51 15.1598L45.27 12.1398L52.06 11.5198L45.26 10.9598L47.43 7.8998L44.41 10.1398L43.79 1.2998L43.24 10.1498Z" stroke="currentcolor" stroke-width="0.75" stroke-linecap="round" stroke-linejoin="round"></path>
    <path d="M0.73999 79.3298L9.27999 39.0398" stroke="currentcolor" stroke-width="0.75" stroke-linecap="round" stroke-linejoin="round"></path>
    <path d="M10.11 79.3298H0.740006C0.740006 79.3298 0.180006 88.1398 10.11 88.1398" stroke="currentcolor" stroke-width="0.75" stroke-linecap="round" stroke-linejoin="round"></path>
    <path d="M19.48 79.3298L10.93 39.0398" stroke="currentcolor" stroke-width="0.75" stroke-linecap="round" stroke-linejoin="round"></path>
    <path d="M10.11 79.3298H19.47C19.47 79.3298 20.03 88.1398 10.11 88.1398" stroke="currentcolor" stroke-width="0.75" stroke-linecap="round" stroke-linejoin="round"></path>
    <path d="M10.3 54.8599V77.2799" stroke="currentcolor" stroke-width="0.75" stroke-linecap="round" stroke-linejoin="round"></path>
    <path d="M10.3 75.1899C10.3 75.1899 6.88999 73.1899 6.29999 70.5199C5.70999 67.8499 10.3 54.8599 10.3 54.8599" stroke="currentcolor" stroke-width="0.75" stroke-linecap="round" stroke-linejoin="round"></path>
    <path d="M6.44 68.3599L10.3 72.6399" stroke="currentcolor" stroke-width="0.75" stroke-linecap="round" stroke-linejoin="round"></path>
    <path d="M7.07001 65.3599L10.3 68.9499" stroke="currentcolor" stroke-width="0.75" stroke-linecap="round" stroke-linejoin="round"></path>
    <path d="M7.88 62.7297L10.3 65.4197" stroke="currentcolor" stroke-width="0.75" stroke-linecap="round" stroke-linejoin="round"></path>
    <path d="M8.78998 59.9199L10.3 61.5999" stroke="currentcolor" stroke-width="0.75" stroke-linecap="round" stroke-linejoin="round"></path>
    <path d="M10.3 75.1899C10.3 75.1899 13.72 73.1899 14.3 70.5199C14.88 67.8499 10.3 54.8599 10.3 54.8599" stroke="currentcolor" stroke-width="0.75" stroke-linecap="round" stroke-linejoin="round"></path>
    <path d="M14.17 68.3599L10.3 72.6399" stroke="currentcolor" stroke-width="0.75" stroke-linecap="round" stroke-linejoin="round"></path>
    <path d="M13.54 65.3599L10.3 68.9499" stroke="currentcolor" stroke-width="0.75" stroke-linecap="round" stroke-linejoin="round"></path>
    <path d="M12.73 62.7297L10.3 65.4197" stroke="currentcolor" stroke-width="0.75" stroke-linecap="round" stroke-linejoin="round"></path>
    <path d="M11.82 59.9199L10.3 61.5999" stroke="currentcolor" stroke-width="0.75" stroke-linecap="round" stroke-linejoin="round"></path>
    <path d="M43.7 98.8699H58.01V97.6099H43.7" stroke="currentcolor" stroke-width="0.75" stroke-linecap="round" stroke-linejoin="round"></path>
    <path d="M46.02 92.2498L56.95 97.6098" stroke="currentcolor" stroke-width="0.75" stroke-linecap="round" stroke-linejoin="round"></path>
    <path d="M43.7 92.2497H47.68V90.1997H43.7" stroke="currentcolor" stroke-width="0.75" stroke-linecap="round" stroke-linejoin="round"></path>
    <path d="M47.02 90.1998L45.02 63.6998C45.02 63.6998 43.26 59.3298 45.02 55.4898L47.02 52.7098V45.4898L48.47 43.5698C48.3003 43.0433 48.002 42.5673 47.6022 42.185C47.2024 41.8026 46.7136 41.5259 46.18 41.3798V35.9198C46.18 35.9198 48.81 34.7098 48.81 33.0898C48.81 31.4698 46.05 30.2998 46.05 30.2998H43.88" stroke="currentcolor" stroke-width="0.75" stroke-linecap="round" stroke-linejoin="round"></path>
    <path d="M46.18 41.3799H43.88" stroke="currentcolor" stroke-width="0.75" stroke-linecap="round" stroke-linejoin="round"></path>
    <path d="M46.18 35.8699H43.88" stroke="currentcolor" stroke-width="0.75" stroke-linecap="round" stroke-linejoin="round"></path>
    <path d="M47.02 52.7097H43.88" stroke="currentcolor" stroke-width="0.75" stroke-linecap="round" stroke-linejoin="round"></path>
    <path d="M45.03 63.6997H43.7" stroke="currentcolor" stroke-width="0.75" stroke-linecap="round" stroke-linejoin="round"></path>
    <path d="M45.03 55.4897H43.88" stroke="currentcolor" stroke-width="0.75" stroke-linecap="round" stroke-linejoin="round"></path>
    <path d="M46.06 30.2498H80.03L78.49 32.1398L48.02 34.5998" stroke="currentcolor" stroke-width="0.75" stroke-linecap="round" stroke-linejoin="round"></path>
    <path d="M75 35.5999C74.998 36.2807 75.1981 36.9468 75.5749 37.5138C75.9517 38.0808 76.4882 38.5233 77.1166 38.7852C77.745 39.0471 78.437 39.1166 79.105 38.985C79.7729 38.8534 80.3868 38.5266 80.8689 38.0459C81.351 37.5652 81.6796 36.9523 81.8132 36.2847C81.9467 35.6172 81.8792 34.925 81.6191 34.2958C81.359 33.6667 80.9181 33.1288 80.3522 32.7504C79.7863 32.3719 79.1208 32.1699 78.44 32.1699" stroke="currentcolor" stroke-width="0.75" stroke-linecap="round" stroke-linejoin="round"></path>
    <path d="M86.98 79.3298L78.44 39.0398" stroke="currentcolor" stroke-width="0.75" stroke-linecap="round" stroke-linejoin="round"></path>
    <path d="M77.61 79.3298H86.98C86.98 79.3298 87.54 88.1398 77.61 88.1398" stroke="currentcolor" stroke-width="0.75" stroke-linecap="round" stroke-linejoin="round"></path>
    <path d="M68.24 79.3298L76.78 39.0398" stroke="currentcolor" stroke-width="0.75" stroke-linecap="round" stroke-linejoin="round"></path>
    <path d="M77.61 79.3298H68.25C68.25 79.3298 67.69 88.1398 77.61 88.1398" stroke="currentcolor" stroke-width="0.75" stroke-linecap="round" stroke-linejoin="round"></path>
    <path d="M77.61 78.1398C71.22 74.8498 71.67 70.3198 71.67 70.3198C71.6684 69.6033 71.9166 68.9087 72.3719 68.3556C72.8273 67.8024 73.4612 67.4252 74.1646 67.2891C74.868 67.1529 75.5968 67.2662 76.2257 67.6095C76.8546 67.9527 77.3441 68.5045 77.61 69.1698C77.8759 68.5045 78.3654 67.9527 78.9943 67.6095C79.6232 67.2662 80.352 67.1529 81.0554 67.2891C81.7588 67.4252 82.3928 67.8024 82.8481 68.3556C83.3034 68.9087 83.5516 69.6033 83.55 70.3198C83.55 70.3198 83.99 74.8498 77.61 78.1398Z" stroke="currentcolor" stroke-width="0.75" stroke-linecap="round" stroke-linejoin="round"></path>
    <path d="M38.91 81.5397C35.5875 80.4784 32.6883 78.3885 30.6311 75.5719C28.574 72.7552 27.4653 69.3576 27.4653 65.8697C27.4653 62.3818 28.574 58.9842 30.6311 56.1675C32.6883 53.3509 35.5875 51.261 38.91 50.1997" stroke="currentcolor" stroke-width="0.75" stroke-linecap="round" stroke-linejoin="round"></path>
    <path d="M48.81 50.1699C52.1465 51.2152 55.0631 53.2964 57.1367 56.1115C59.2103 58.9266 60.3331 62.3292 60.342 65.8256C60.3509 69.322 59.2455 72.7303 57.1863 75.5559C55.1271 78.3816 52.2211 80.4776 48.89 81.5399" stroke="currentcolor" stroke-width="0.75" stroke-linecap="round" stroke-linejoin="round"></path>
    <path d="M30.61 44.5798C29.7706 45.2541 29.0771 46.092 28.5717 47.0427C28.0663 47.9933 27.7595 49.0369 27.67 50.1098C27.584 49.0371 27.2798 47.9932 26.7759 47.0423C26.2721 46.0914 25.5793 45.2534 24.74 44.5798C25.5791 43.9039 26.2717 43.064 26.7755 42.1115C27.2793 41.159 27.5836 40.1138 27.67 39.0398C27.7616 40.1136 28.0692 41.1579 28.5745 42.1099C29.0797 43.0619 29.772 43.902 30.61 44.5798Z" stroke="currentcolor" stroke-width="0.75" stroke-linecap="round" stroke-linejoin="round"></path>
    <path d="M62.66 44.5798C61.825 45.2573 61.1352 46.0962 60.6318 47.0464C60.1284 47.9965 59.8217 49.0384 59.73 50.1098C59.644 49.0371 59.3398 47.9932 58.8359 47.0423C58.3321 46.0914 57.6393 45.2534 56.8 44.5798C57.6391 43.9039 58.3317 43.064 58.8355 42.1115C59.3392 41.159 59.6436 40.1138 59.73 39.0398C59.8204 40.1129 60.1264 41.1567 60.6299 42.1087C61.1334 43.0606 61.8239 43.9011 62.66 44.5798Z" stroke="currentcolor" stroke-width="0.75" stroke-linecap="round" stroke-linejoin="round"></path>
  </g>
  <defs>
    <clipPath id="clip0_1_3161">
      <rect width="87" height="98.33" fill="currentcolor" transform="translate(0.359985 0.919922)"></rect>
    </clipPath>
  </defs>
</svg>
